# WaveFront *.obj file (generated by Autodesk ATF)

mtllib 2932dace-0f1d-4e80-8eb3-627b77f96f37.mtl

g Body1

v -5.000000 90.000000 -5.000000
v -5.000000 90.000000 5.000000
v -5.000000 105.000000 5.000000
v -5.000000 105.000000 -5.000000
v 5.000000 90.000000 -5.000000
v 5.000000 105.000000 -5.000000
v 5.000000 90.000000 5.000000
v 5.000000 105.000000 5.000000
v 10.000000 85.000000 -10.000000
v -10.000000 85.000000 -10.000000
v -10.000000 90.000000 -10.000000
v 10.000000 90.000000 -10.000000
v -10.000000 85.000000 10.000000
v -10.000000 90.000000 10.000000
v 10.000000 85.000000 10.000000
v 10.000000 90.000000 10.000000
v -20.000000 85.000000 20.000000
v 20.000000 85.000000 20.000000
v 20.000000 85.000000 -20.000000
v -20.000000 85.000000 -20.000000
v -25.000000 50.000000 10.000000
v -20.000000 50.000000 10.000000
v -20.000000 70.000000 10.000000
v -25.000000 70.000000 10.000000
v -20.000000 50.000000 -10.000000
v -25.000000 50.000000 -10.000000
v -25.000000 70.000000 -10.000000
v -20.000000 70.000000 -10.000000
v -20.000000 50.000000 -20.000000
v 20.000000 50.000000 -20.000000
v 20.000000 50.000000 -10.000000
v 25.000000 50.000000 -10.000000
v 25.000000 50.000000 -25.000000
v -25.000000 50.000000 -25.000000
v 20.000000 70.000000 -10.000000
v 25.000000 70.000000 -10.000000
v 20.000000 50.000000 10.000000
v 25.000000 50.000000 10.000000
v 25.000000 70.000000 10.000000
v 20.000000 70.000000 10.000000
v -20.000000 50.000000 20.000000
v 20.000000 50.000000 20.000000
v 40.000000 0.000000 -15.000000
v 25.000000 0.000000 -15.000000
v 25.000000 40.000000 -15.000000
v 40.000000 40.000000 -15.000000
v 40.000000 0.000000 0.000000
v 40.000000 40.000000 0.000000
v 25.000000 0.000000 0.000000
v 25.000000 40.000000 0.000000
v 25.000000 0.000000 -25.000000
v 25.000000 50.000000 25.000000
v 25.000000 15.000000 25.000000
v 25.000000 15.000000 10.000000
v 25.000000 0.000000 10.000000
v -40.000000 0.000000 -15.000000
v -40.000000 0.000000 0.000000
v -40.000000 40.000000 0.000000
v -40.000000 40.000000 -15.000000
v -25.000000 0.000000 -15.000000
v -25.000000 40.000000 -15.000000
v -25.000000 0.000000 0.000000
v -25.000000 40.000000 0.000000
v 35.000000 0.000000 10.000000
v 35.000000 15.000000 10.000000
v 35.000000 0.000000 40.000000
v 35.000000 15.000000 40.000000
v 15.000000 0.000000 40.000000
v 15.000000 15.000000 40.000000
v 15.000000 0.000000 25.000000
v 15.000000 15.000000 25.000000
v -25.000000 50.000000 25.000000
v -25.000000 15.000000 25.000000
v -15.000000 15.000000 25.000000
v -15.000000 0.000000 25.000000
v -15.000000 0.000000 40.000000
v -15.000000 15.000000 40.000000
v -35.000000 0.000000 40.000000
v -35.000000 15.000000 40.000000
v -35.000000 0.000000 10.000000
v -35.000000 15.000000 10.000000
v -25.000000 0.000000 10.000000
v -25.000000 15.000000 10.000000
v -25.000000 0.000000 -25.000000
vt 0.000000 4.000000 0.000000
vt 1.000000 4.000000 0.000000
vt 0.000000 5.500000 0.000000
vt 1.000000 5.500000 0.000000
vt -0.000000 4.000000 0.000000
vt 1.000000 4.000000 0.000000
vt -0.000000 5.500000 0.000000
vt 1.000000 5.500000 0.000000
vt 0.000000 4.000000 0.000000
vt 1.000000 4.000000 0.000000
vt 0.000000 5.500000 0.000000
vt 1.000000 5.500000 0.000000
vt -0.000000 4.000000 0.000000
vt 1.000000 4.000000 0.000000
vt -0.000000 5.500000 0.000000
vt 1.000000 5.500000 0.000000
vt 0.500000 0.500000 0.000000
vt -0.500000 0.500000 0.000000
vt 0.500000 -0.500000 0.000000
vt -0.500000 -0.500000 0.000000
vt -0.000000 3.500000 0.000000
vt 2.000000 3.500000 0.000000
vt -0.000000 4.000000 0.000000
vt 2.000000 4.000000 0.000000
vt 0.000000 3.500000 0.000000
vt 2.000000 3.500000 0.000000
vt 0.000000 4.000000 0.000000
vt 2.000000 4.000000 0.000000
vt -0.000000 3.500000 0.000000
vt 2.000000 3.500000 0.000000
vt -0.000000 4.000000 0.000000
vt 2.000000 4.000000 0.000000
vt 0.000000 3.500000 0.000000
vt 2.000000 3.500000 0.000000
vt 0.000000 4.000000 0.000000
vt 2.000000 4.000000 0.000000
vt 0.500000 -0.500000 0.000000
vt 1.000000 -1.000000 0.000000
vt 0.500000 0.500000 0.000000
vt 1.000000 1.000000 0.000000
vt -1.000000 1.000000 0.000000
vt -0.500000 -0.500000 0.000000
vt -1.000000 -1.000000 0.000000
vt -0.500000 0.500000 0.000000
vt 2.000000 2.000000 0.000000
vt 1.000000 1.000000 0.000000
vt 2.000000 -2.000000 0.000000
vt 1.000000 -1.000000 0.000000
vt -1.000000 -1.000000 0.000000
vt -2.000000 2.000000 0.000000
vt -1.000000 1.000000 0.000000
vt -2.000000 -2.000000 0.000000
vt 0.000000 0.000000 0.000000
vt 0.500000 0.000000 0.000000
vt 0.000000 2.000000 0.000000
vt 0.500000 2.000000 0.000000
vt 0.000000 0.000000 0.000000
vt 0.500000 0.000000 0.000000
vt 0.000000 2.000000 0.000000
vt 0.500000 2.000000 0.000000
vt 1.000000 0.250000 0.000000
vt -1.000000 0.250000 0.000000
vt 1.000000 -0.250000 0.000000
vt -1.000000 -0.250000 0.000000
vt -1.000000 -2.000000 0.000000
vt -2.000000 -2.000000 0.000000
vt -1.000000 -2.500000 0.000000
vt -2.500000 -2.500000 0.000000
vt -2.000000 2.000000 0.000000
vt -2.500000 2.500000 0.000000
vt -1.000000 2.500000 0.000000
vt -1.000000 2.000000 0.000000
vt -0.000000 0.000000 0.000000
vt 0.500000 0.000000 0.000000
vt -0.000000 2.000000 0.000000
vt 0.500000 2.000000 0.000000
vt 0.000000 0.000000 0.000000
vt 0.500000 0.000000 0.000000
vt 0.000000 2.000000 0.000000
vt 0.500000 2.000000 0.000000
vt 1.000000 0.250000 0.000000
vt -1.000000 0.250000 0.000000
vt 1.000000 -0.250000 0.000000
vt -1.000000 -0.250000 0.000000
vt 3.000000 0.000000 0.000000
vt 4.000000 0.000000 0.000000
vt 3.000000 2.000000 0.000000
vt 4.000000 3.500000 0.000000
vt 0.000000 3.500000 0.000000
vt 1.000000 2.000000 0.000000
vt 0.000000 0.000000 0.000000
vt 1.000000 0.000000 0.000000
vt -0.000000 0.000000 0.000000
vt 4.000000 0.000000 0.000000
vt -0.000000 3.500000 0.000000
vt 4.000000 3.500000 0.000000
vt 3.000000 0.000000 0.000000
vt 4.000000 0.000000 0.000000
vt 3.000000 2.000000 0.000000
vt 4.000000 3.500000 0.000000
vt -0.000000 3.500000 0.000000
vt 1.000000 2.000000 0.000000
vt -0.000000 0.000000 0.000000
vt 1.000000 0.000000 0.000000
vt 0.000000 0.000000 0.000000
vt 4.000000 0.000000 0.000000
vt 0.000000 3.500000 0.000000
vt 4.000000 3.500000 0.000000
vt -0.000000 0.000000 0.000000
vt 1.500000 0.000000 0.000000
vt -0.000000 4.000000 0.000000
vt 1.500000 4.000000 0.000000
vt -0.000000 0.000000 0.000000
vt 1.500000 0.000000 0.000000
vt -0.000000 4.000000 0.000000
vt 1.500000 4.000000 0.000000
vt 0.000000 0.000000 0.000000
vt 1.500000 0.000000 0.000000
vt 0.000000 4.000000 0.000000
vt 1.500000 4.000000 0.000000
vt 0.750000 0.750000 0.000000
vt -0.750000 0.750000 0.000000
vt 0.750000 -0.750000 0.000000
vt -0.750000 -0.750000 0.000000
vt 1.500000 0.000000 0.000000
vt 2.500000 0.000000 0.000000
vt 1.500000 1.500000 0.000000
vt 2.500000 4.000000 0.000000
vt 1.500000 5.000000 0.000000
vt 3.500000 5.000000 0.000000
vt 1.500000 7.000000 0.000000
vt 3.500000 7.000000 0.000000
vt 4.000000 4.000000 0.000000
vt 5.000000 5.000000 0.000000
vt 5.000000 0.000000 0.000000
vt 4.000000 0.000000 0.000000
vt -0.000000 5.000000 0.000000
vt -0.000000 1.500000 0.000000
vt 0.000000 0.000000 0.000000
vt 1.500000 0.000000 0.000000
vt 0.000000 4.000000 0.000000
vt 1.500000 4.000000 0.000000
vt -0.000000 0.000000 0.000000
vt 1.500000 0.000000 0.000000
vt -0.000000 4.000000 0.000000
vt 1.500000 4.000000 0.000000
vt 0.000000 0.000000 0.000000
vt 1.500000 0.000000 0.000000
vt 0.000000 4.000000 0.000000
vt 1.500000 4.000000 0.000000
vt 0.750000 0.750000 0.000000
vt -0.750000 0.750000 0.000000
vt 0.750000 -0.750000 0.000000
vt -0.750000 -0.750000 0.000000
vt -0.000000 0.000000 0.000000
vt 1.000000 0.000000 0.000000
vt -0.000000 1.500000 0.000000
vt 1.000000 1.500000 0.000000
vt -0.000000 0.000000 0.000000
vt 3.000000 0.000000 0.000000
vt -0.000000 1.500000 0.000000
vt 3.000000 1.500000 0.000000
vt 0.000000 0.000000 0.000000
vt 2.000000 0.000000 0.000000
vt 0.000000 1.500000 0.000000
vt 2.000000 1.500000 0.000000
vt 0.000000 0.000000 0.000000
vt 1.500000 0.000000 0.000000
vt 0.000000 1.500000 0.000000
vt 1.500000 1.500000 0.000000
vt -1.500000 0.000000 0.000000
vt 0.000000 0.000000 0.000000
vt -1.500000 1.000000 0.000000
vt 1.500000 1.000000 0.000000
vt 1.500000 -1.000000 0.000000
vt 0.000000 -1.000000 0.000000
vt 1.000000 0.000000 0.000000
vt 4.000000 0.000000 0.000000
vt 1.000000 1.500000 0.000000
vt 4.000000 1.500000 0.000000
vt 0.000000 5.000000 0.000000
vt 5.000000 5.000000 0.000000
vt 5.000000 1.500000 0.000000
vt 0.000000 1.500000 0.000000
vt -0.000000 0.000000 0.000000
vt 1.500000 0.000000 0.000000
vt -0.000000 1.500000 0.000000
vt 1.500000 1.500000 0.000000
vt 0.000000 0.000000 0.000000
vt 2.000000 0.000000 0.000000
vt 0.000000 1.500000 0.000000
vt 2.000000 1.500000 0.000000
vt 0.000000 0.000000 0.000000
vt 3.000000 0.000000 0.000000
vt 0.000000 1.500000 0.000000
vt 3.000000 1.500000 0.000000
vt -0.000000 0.000000 0.000000
vt 1.000000 0.000000 0.000000
vt -0.000000 1.500000 0.000000
vt 1.000000 1.500000 0.000000
vt 0.000000 1.000000 0.000000
vt 0.000000 0.000000 0.000000
vt 1.500000 1.000000 0.000000
vt 1.500000 -1.000000 0.000000
vt -1.500000 -1.000000 0.000000
vt -1.500000 0.000000 0.000000
vt 2.500000 0.000000 0.000000
vt 3.500000 1.500000 0.000000
vt 2.500000 4.000000 0.000000
vt 3.500000 5.000000 0.000000
vt 1.500000 5.000000 0.000000
vt 1.500000 7.000000 0.000000
vt 3.500000 7.000000 0.000000
vt 3.500000 0.000000 0.000000
vt 5.000000 1.500000 0.000000
vt 5.000000 5.000000 0.000000
vt 1.000000 4.000000 0.000000
vt 0.000000 5.000000 0.000000
vt 0.000000 0.000000 0.000000
vt 1.000000 0.000000 0.000000
vt -0.000000 0.000000 0.000000
vt 5.000000 0.000000 0.000000
vt -0.000000 5.000000 0.000000
vt 5.000000 5.000000 0.000000
vt 1.000000 -2.000000 0.000000
vt 1.000000 -2.500000 0.000000
vt 2.000000 -2.000000 0.000000
vt 2.500000 -2.500000 0.000000
vt 2.000000 2.000000 0.000000
vt 2.500000 2.500000 0.000000
vt 1.000000 2.500000 0.000000
vt 1.000000 2.000000 0.000000
vt 2.500000 2.500000 0.000000
vt -2.500000 2.500000 0.000000
vt 2.500000 1.500000 0.000000
vt -2.500000 1.500000 0.000000
vt 2.500000 0.000000 0.000000
vt -2.500000 0.000000 0.000000
vt 2.500000 -1.000000 0.000000
vt -2.500000 -1.000000 0.000000
vt 1.500000 -2.500000 0.000000
vt -1.500000 -2.500000 0.000000
vt -3.500000 -1.000000 0.000000
vt -3.500000 -4.000000 0.000000
vt -4.000000 1.500000 0.000000
vt -4.000000 0.000000 0.000000
vt -1.500000 -4.000000 0.000000
vt 1.500000 -4.000000 0.000000
vt 3.500000 -4.000000 0.000000
vt 3.500000 -1.000000 0.000000
vt 4.000000 0.000000 0.000000
vt 4.000000 1.500000 0.000000
vn -0.100000 0.000000 0.000000
vn -0.100000 0.000000 0.000000
vn -0.100000 0.000000 0.000000
vn -0.100000 0.000000 0.000000
vn 0.000000 0.000000 -0.100000
vn 0.000000 0.000000 -0.100000
vn 0.000000 0.000000 -0.100000
vn 0.000000 0.000000 -0.100000
vn 0.000000 -0.000000 0.100000
vn 0.000000 -0.000000 0.100000
vn 0.000000 -0.000000 0.100000
vn 0.000000 -0.000000 0.100000
vn 0.100000 0.000000 0.000000
vn 0.100000 0.000000 0.000000
vn 0.100000 0.000000 0.000000
vn 0.100000 0.000000 0.000000
vn 0.000000 0.100000 0.000000
vn 0.000000 0.100000 0.000000
vn 0.000000 0.100000 0.000000
vn 0.000000 0.100000 0.000000
vn 0.000000 0.000000 -0.100000
vn 0.000000 0.000000 -0.100000
vn 0.000000 0.000000 -0.100000
vn 0.000000 0.000000 -0.100000
vn -0.100000 0.000000 0.000000
vn -0.100000 0.000000 0.000000
vn -0.100000 0.000000 0.000000
vn -0.100000 0.000000 0.000000
vn 0.100000 0.000000 0.000000
vn 0.100000 0.000000 0.000000
vn 0.100000 0.000000 0.000000
vn 0.100000 0.000000 0.000000
vn 0.000000 -0.000000 0.100000
vn 0.000000 -0.000000 0.100000
vn 0.000000 -0.000000 0.100000
vn 0.000000 -0.000000 0.100000
vn 0.000000 0.100000 0.000000
vn 0.000000 0.100000 0.000000
vn 0.000000 0.100000 0.000000
vn 0.000000 0.100000 0.000000
vn 0.000000 0.100000 0.000000
vn 0.000000 0.100000 0.000000
vn 0.000000 0.100000 0.000000
vn 0.000000 0.100000 0.000000
vn 0.000000 0.100000 0.000000
vn 0.000000 0.100000 0.000000
vn 0.000000 0.100000 0.000000
vn 0.000000 0.100000 0.000000
vn 0.000000 0.100000 0.000000
vn 0.000000 0.100000 0.000000
vn 0.000000 0.100000 0.000000
vn 0.000000 0.100000 0.000000
vn 0.000000 0.000000 0.100000
vn 0.000000 0.000000 0.100000
vn 0.000000 0.000000 0.100000
vn 0.000000 0.000000 0.100000
vn 0.000000 0.000000 -0.100000
vn 0.000000 0.000000 -0.100000
vn 0.000000 0.000000 -0.100000
vn 0.000000 0.000000 -0.100000
vn 0.000000 0.100000 0.000000
vn 0.000000 0.100000 0.000000
vn 0.000000 0.100000 0.000000
vn 0.000000 0.100000 0.000000
vn 0.000000 0.100000 0.000000
vn 0.000000 0.100000 0.000000
vn 0.000000 0.100000 0.000000
vn 0.000000 0.100000 0.000000
vn 0.000000 0.100000 0.000000
vn 0.000000 0.100000 0.000000
vn 0.000000 0.100000 0.000000
vn 0.000000 0.100000 0.000000
vn 0.000000 0.000000 -0.100000
vn 0.000000 0.000000 -0.100000
vn 0.000000 0.000000 -0.100000
vn 0.000000 0.000000 -0.100000
vn 0.000000 -0.000000 0.100000
vn 0.000000 -0.000000 0.100000
vn 0.000000 -0.000000 0.100000
vn 0.000000 -0.000000 0.100000
vn 0.000000 0.100000 0.000000
vn 0.000000 0.100000 0.000000
vn 0.000000 0.100000 0.000000
vn 0.000000 0.100000 0.000000
vn -0.100000 0.000000 0.000000
vn -0.100000 0.000000 0.000000
vn -0.100000 0.000000 0.000000
vn -0.100000 0.000000 0.000000
vn -0.100000 0.000000 0.000000
vn -0.100000 0.000000 0.000000
vn -0.100000 0.000000 0.000000
vn -0.100000 0.000000 0.000000
vn 0.000000 0.000000 -0.100000
vn 0.000000 0.000000 -0.100000
vn 0.000000 0.000000 -0.100000
vn 0.000000 0.000000 -0.100000
vn 0.100000 0.000000 0.000000
vn 0.100000 0.000000 0.000000
vn 0.100000 0.000000 0.000000
vn 0.100000 0.000000 0.000000
vn 0.100000 0.000000 0.000000
vn 0.100000 0.000000 0.000000
vn 0.100000 0.000000 0.000000
vn 0.100000 0.000000 0.000000
vn 0.000000 -0.000000 0.100000
vn 0.000000 -0.000000 0.100000
vn 0.000000 -0.000000 0.100000
vn 0.000000 -0.000000 0.100000
vn 0.000000 0.000000 -0.100000
vn 0.000000 0.000000 -0.100000
vn 0.000000 0.000000 -0.100000
vn 0.000000 0.000000 -0.100000
vn 0.100000 0.000000 0.000000
vn 0.100000 0.000000 0.000000
vn 0.100000 0.000000 0.000000
vn 0.100000 0.000000 0.000000
vn 0.000000 -0.000000 0.100000
vn 0.000000 -0.000000 0.100000
vn 0.000000 -0.000000 0.100000
vn 0.000000 -0.000000 0.100000
vn 0.000000 0.100000 0.000000
vn 0.000000 0.100000 0.000000
vn 0.000000 0.100000 0.000000
vn 0.000000 0.100000 0.000000
vn 0.100000 0.000000 0.000000
vn 0.100000 0.000000 0.000000
vn 0.100000 0.000000 0.000000
vn 0.100000 0.000000 0.000000
vn 0.100000 0.000000 0.000000
vn 0.100000 0.000000 0.000000
vn 0.100000 0.000000 0.000000
vn 0.100000 0.000000 0.000000
vn 0.100000 0.000000 0.000000
vn 0.100000 0.000000 0.000000
vn 0.100000 0.000000 0.000000
vn 0.100000 0.000000 0.000000
vn 0.100000 0.000000 0.000000
vn 0.100000 0.000000 0.000000
vn -0.100000 0.000000 0.000000
vn -0.100000 0.000000 0.000000
vn -0.100000 0.000000 0.000000
vn -0.100000 0.000000 0.000000
vn 0.000000 0.000000 -0.100000
vn 0.000000 0.000000 -0.100000
vn 0.000000 0.000000 -0.100000
vn 0.000000 0.000000 -0.100000
vn 0.000000 -0.000000 0.100000
vn 0.000000 -0.000000 0.100000
vn 0.000000 -0.000000 0.100000
vn 0.000000 -0.000000 0.100000
vn 0.000000 0.100000 0.000000
vn 0.000000 0.100000 0.000000
vn 0.000000 0.100000 0.000000
vn 0.000000 0.100000 0.000000
vn 0.000000 0.000000 -0.100000
vn 0.000000 0.000000 -0.100000
vn 0.000000 0.000000 -0.100000
vn 0.000000 0.000000 -0.100000
vn 0.100000 0.000000 0.000000
vn 0.100000 0.000000 0.000000
vn 0.100000 0.000000 0.000000
vn 0.100000 0.000000 0.000000
vn 0.000000 -0.000000 0.100000
vn 0.000000 -0.000000 0.100000
vn 0.000000 -0.000000 0.100000
vn 0.000000 -0.000000 0.100000
vn -0.100000 0.000000 0.000000
vn -0.100000 0.000000 0.000000
vn -0.100000 0.000000 0.000000
vn -0.100000 0.000000 0.000000
vn 0.000000 0.100000 0.000000
vn 0.000000 0.100000 0.000000
vn 0.000000 0.100000 0.000000
vn 0.000000 0.100000 0.000000
vn 0.000000 0.100000 0.000000
vn 0.000000 0.100000 0.000000
vn 0.000000 -0.000000 0.100000
vn 0.000000 -0.000000 0.100000
vn 0.000000 -0.000000 0.100000
vn 0.000000 -0.000000 0.100000
vn 0.000000 -0.000000 0.100000
vn 0.000000 -0.000000 0.100000
vn 0.000000 -0.000000 0.100000
vn 0.000000 -0.000000 0.100000
vn 0.100000 0.000000 0.000000
vn 0.100000 0.000000 0.000000
vn 0.100000 0.000000 0.000000
vn 0.100000 0.000000 0.000000
vn 0.000000 -0.000000 0.100000
vn 0.000000 -0.000000 0.100000
vn 0.000000 -0.000000 0.100000
vn 0.000000 -0.000000 0.100000
vn -0.100000 0.000000 0.000000
vn -0.100000 0.000000 0.000000
vn -0.100000 0.000000 0.000000
vn -0.100000 0.000000 0.000000
vn 0.000000 0.000000 -0.100000
vn 0.000000 0.000000 -0.100000
vn 0.000000 0.000000 -0.100000
vn 0.000000 0.000000 -0.100000
vn 0.000000 0.100000 0.000000
vn 0.000000 0.100000 0.000000
vn 0.000000 0.100000 0.000000
vn 0.000000 0.100000 0.000000
vn 0.000000 0.100000 0.000000
vn 0.000000 0.100000 0.000000
vn -0.100000 0.000000 0.000000
vn -0.100000 0.000000 0.000000
vn -0.100000 0.000000 0.000000
vn -0.100000 0.000000 0.000000
vn -0.100000 0.000000 0.000000
vn -0.100000 0.000000 0.000000
vn -0.100000 0.000000 0.000000
vn -0.100000 0.000000 0.000000
vn -0.100000 0.000000 0.000000
vn -0.100000 0.000000 0.000000
vn -0.100000 0.000000 0.000000
vn -0.100000 0.000000 0.000000
vn -0.100000 0.000000 0.000000
vn -0.100000 0.000000 0.000000
vn 0.000000 0.000000 -0.100000
vn 0.000000 0.000000 -0.100000
vn 0.000000 0.000000 -0.100000
vn 0.000000 0.000000 -0.100000
vn 0.000000 0.100000 0.000000
vn 0.000000 0.100000 0.000000
vn 0.000000 0.100000 0.000000
vn 0.000000 0.100000 0.000000
vn 0.000000 0.100000 0.000000
vn 0.000000 0.100000 0.000000
vn 0.000000 0.100000 0.000000
vn 0.000000 0.100000 0.000000
vn 0.000000 -0.100000 0.000000
vn 0.000000 -0.100000 0.000000
vn 0.000000 -0.100000 0.000000
vn 0.000000 -0.100000 0.000000
vn 0.000000 -0.100000 0.000000
vn 0.000000 -0.100000 0.000000
vn 0.000000 -0.100000 0.000000
vn 0.000000 -0.100000 0.000000
vn 0.000000 -0.100000 0.000000
vn 0.000000 -0.100000 0.000000
vn 0.000000 -0.100000 0.000000
vn 0.000000 -0.100000 0.000000
vn 0.000000 -0.100000 0.000000
vn 0.000000 -0.100000 0.000000
vn 0.000000 -0.100000 0.000000
vn 0.000000 -0.100000 0.000000
vn 0.000000 -0.100000 0.000000
vn 0.000000 -0.100000 0.000000
vn 0.000000 -0.100000 0.000000
vn 0.000000 -0.100000 0.000000
usemtl Steel_-_Satin
f 1/1/1 2/2/2 4/3/3
f 4/3/3 2/2/2 3/4/4
f 5/5/5 1/6/6 6/7/7
f 6/7/7 1/6/6 4/8/8
f 2/9/9 7/10/10 3/11/11
f 3/11/11 7/10/10 8/12/12
f 7/13/13 5/14/14 8/15/15
f 8/15/15 5/14/14 6/16/16
f 8/17/17 6/18/18 3/19/19
f 3/19/19 6/18/18 4/20/20
f 9/21/21 10/22/22 12/23/23
f 12/23/23 10/22/22 11/24/24
f 10/25/25 13/26/26 11/27/27
f 11/27/27 13/26/26 14/28/28
f 15/29/29 9/30/30 16/31/31
f 16/31/31 9/30/30 12/32/32
f 13/33/33 15/34/34 14/35/35
f 14/35/35 15/34/34 16/36/36
f 2/37/37 14/38/38 7/39/39
f 7/39/39 14/38/38 16/40/40
f 7/39/39 16/40/40 12/41/41
f 2/37/37 1/42/42 14/38/38
f 14/38/38 1/42/42 11/43/43
f 11/43/43 1/42/42 5/44/44
f 11/43/43 5/44/44 12/41/41
f 12/41/41 5/44/44 7/39/39
f 18/45/45 15/46/46 17/47/47
f 17/47/47 15/46/46 13/48/48
f 17/47/47 13/48/48 10/49/49
f 18/45/45 19/50/50 15/46/46
f 15/46/46 19/50/50 9/51/51
f 9/51/51 19/50/50 20/52/52
f 9/51/51 20/52/52 10/49/49
f 10/49/49 20/52/52 17/47/47
f 21/53/53 22/54/54 24/55/55
f 24/55/55 22/54/54 23/56/56
f 25/57/57 26/58/58 28/59/59
f 28/59/59 26/58/58 27/60/60
f 23/61/61 28/62/62 24/63/63
f 24/63/63 28/62/62 27/64/64
f 25/65/65 29/66/66 26/67/67
f 26/67/67 29/66/66 34/68/68
f 34/68/68 29/66/66 30/69/69
f 34/68/68 30/69/69 33/70/70
f 33/70/70 30/69/69 32/71/71
f 32/71/71 30/69/69 31/72/72
f 32/73/73 31/74/74 36/75/75
f 36/75/75 31/74/74 35/76/76
f 37/77/77 38/78/78 40/79/79
f 40/79/79 38/78/78 39/80/80
f 39/81/81 36/82/82 40/83/83
f 40/83/83 36/82/82 35/84/84
f 22/85/85 41/86/86 23/87/87
f 23/87/87 41/86/86 17/88/88
f 23/87/87 17/88/88 20/89/89
f 23/87/87 20/89/89 28/90/90
f 28/90/90 20/89/89 29/91/91
f 28/90/90 29/91/91 25/92/92
f 30/93/93 29/94/94 19/95/95
f 19/95/95 29/94/94 20/96/96
f 31/97/97 30/98/98 35/99/99
f 35/99/99 30/98/98 19/100/100
f 35/99/99 19/100/100 18/101/101
f 35/99/99 18/101/101 40/102/102
f 40/102/102 18/101/101 42/103/103
f 40/102/102 42/103/103 37/104/104
f 41/105/105 42/106/106 17/107/107
f 17/107/107 42/106/106 18/108/108
f 43/109/109 44/110/110 46/111/111
f 46/111/111 44/110/110 45/112/112
f 47/113/113 43/114/114 48/115/115
f 48/115/115 43/114/114 46/116/116
f 49/117/117 47/118/118 50/119/119
f 50/119/119 47/118/118 48/120/120
f 48/121/121 46/122/122 50/123/123
f 50/123/123 46/122/122 45/124/124
f 55/125/125 49/126/126 54/127/127
f 54/127/127 49/126/126 50/128/128
f 54/127/127 50/128/128 38/129/129
f 38/129/129 50/128/128 32/130/130
f 38/129/129 32/130/130 39/131/131
f 39/131/131 32/130/130 36/132/132
f 50/128/128 45/133/133 32/130/130
f 32/130/130 45/133/133 33/134/134
f 33/134/134 45/133/133 51/135/135
f 51/135/135 45/133/133 44/136/136
f 52/137/137 53/138/138 38/129/129
f 38/129/129 53/138/138 54/127/127
f 56/139/139 57/140/140 59/141/141
f 59/141/141 57/140/140 58/142/142
f 60/143/143 56/144/144 61/145/145
f 61/145/145 56/144/144 59/146/146
f 57/147/147 62/148/148 58/149/149
f 58/149/149 62/148/148 63/150/150
f 63/151/151 61/152/152 58/153/153
f 58/153/153 61/152/152 59/154/154
f 64/155/155 55/156/156 65/157/157
f 65/157/157 55/156/156 54/158/158
f 66/159/159 64/160/160 67/161/161
f 67/161/161 64/160/160 65/162/162
f 68/163/163 66/164/164 69/165/165
f 69/165/165 66/164/164 67/166/166
f 70/167/167 68/168/168 71/169/169
f 71/169/169 68/168/168 69/170/170
f 54/171/171 53/172/172 65/173/173
f 65/173/173 53/172/172 67/174/174
f 67/174/174 53/172/172 69/175/175
f 69/175/175 53/172/172 71/176/176
f 75/177/177 70/178/178 74/179/179
f 74/179/179 70/178/178 71/180/180
f 74/179/179 71/180/180 72/181/181
f 72/181/181 71/180/180 52/182/182
f 52/182/182 71/180/180 53/183/183
f 72/181/181 73/184/184 74/179/179
f 76/185/185 75/186/186 77/187/187
f 77/187/187 75/186/186 74/188/188
f 78/189/189 76/190/190 79/191/191
f 79/191/191 76/190/190 77/192/192
f 80/193/193 78/194/194 81/195/195
f 81/195/195 78/194/194 79/196/196
f 82/197/197 80/198/198 83/199/199
f 83/199/199 80/198/198 81/200/200
f 74/201/201 73/202/202 77/203/203
f 77/203/203 73/202/202 79/204/204
f 79/204/204 73/202/202 81/205/205
f 81/205/205 73/202/202 83/206/206
f 62/207/207 83/208/208 63/209/209
f 63/209/209 83/208/208 21/210/210
f 63/209/209 21/210/210 26/211/211
f 26/211/211 21/210/210 27/212/212
f 27/212/212 21/210/210 24/213/213
f 62/207/207 82/214/214 83/208/208
f 83/208/208 73/215/215 21/210/210
f 21/210/210 73/215/215 72/216/216
f 63/209/209 26/211/211 61/217/217
f 61/217/217 26/211/211 34/218/218
f 61/217/217 34/218/218 84/219/219
f 84/219/219 60/220/220 61/217/217
f 51/221/221 84/222/222 33/223/223
f 33/223/223 84/222/222 34/224/224
f 22/225/225 21/226/226 41/227/227
f 41/227/227 21/226/226 72/228/228
f 41/227/227 72/228/228 42/229/229
f 42/229/229 72/228/228 52/230/230
f 42/229/229 52/230/230 38/231/231
f 38/231/231 37/232/232 42/229/229
f 84/233/233 51/234/234 60/235/235
f 60/235/235 51/234/234 44/236/236
f 60/235/235 44/236/236 62/237/237
f 62/237/237 44/236/236 49/238/238
f 62/237/237 49/238/238 82/239/239
f 82/239/239 49/238/238 55/240/240
f 82/239/239 55/240/240 75/241/241
f 75/241/241 55/240/240 70/242/242
f 70/242/242 55/240/240 64/243/243
f 70/242/242 64/243/243 66/244/244
f 44/236/236 43/245/245 49/238/238
f 49/238/238 43/245/245 47/246/246
f 66/244/244 68/247/247 70/242/242
f 76/248/248 78/249/249 75/241/241
f 75/241/241 78/249/249 80/250/250
f 75/241/241 80/250/250 82/239/239
f 62/237/237 57/251/251 60/235/235
f 60/235/235 57/251/251 56/252/252

# 84 vertices
# 252 texture params
# 252 normals
# 164 facets

# 1 groups
