<?xml version="1.0" standalone="no"?>
<!DOCTYPE svg PUBLIC "-//W3C//DTD SVG 20010904//EN"
 "http://www.w3.org/TR/2001/REC-SVG-20010904/DTD/svg10.dtd">
<svg version="1.0" xmlns="http://www.w3.org/2000/svg"
 width="1199.000000pt" height="1199.000000pt" viewBox="0 0 1199.000000 1199.000000"
 preserveAspectRatio="xMidYMid meet">
<metadata>
Created by potrace 1.11, written by Peter Selinger 2001-2013
</metadata>
<g transform="translate(0.000000,1199.000000) scale(0.100000,-0.100000)"
fill="#000000" stroke="none">
<path d="M0 10005 l0 -1985 40 0 c33 0 40 -3 40 -20 0 -17 -7 -20 -40 -20 -23
0 -40 -5 -40 -11 0 -8 14 -10 40 -6 30 4 40 2 40 -9 0 -10 -12 -14 -40 -14
-22 0 -40 -4 -40 -10 0 -5 5 -10 11 -10 6 0 8 -9 4 -20 -4 -13 -2 -20 7 -20 9
-1 7 -5 -4 -14 -15 -11 -18 -30 -18 -120 l0 -106 39 0 c25 0 41 -5 44 -14 4
-10 1 -13 -7 -10 -8 3 -18 0 -22 -7 -13 -21 -4 -93 12 -102 10 -6 14 -20 12
-40 -3 -31 -2 -32 43 -37 39 -5 46 -3 41 10 -3 8 -10 18 -16 22 -8 5 -7 14 2
28 8 13 8 20 1 20 -5 0 -8 4 -4 9 3 6 -2 14 -12 19 -26 15 -24 68 4 81 13 6
23 19 23 31 0 11 6 20 14 20 16 0 27 75 13 89 -5 5 4 13 20 18 25 9 28 15 27
50 -3 66 -24 113 -51 113 -20 0 -23 5 -23 40 0 22 -4 40 -10 40 -13 0 -13 167
0 175 14 9 12 72 -2 78 -9 4 -10 8 -2 14 18 13 12 41 -11 51 -17 8 -20 16 -17
46 3 24 10 37 23 41 10 4 19 15 19 26 0 16 7 19 40 19 l40 0 0 -43 0 -43 43 1
42 0 -4 43 -3 42 41 0 c34 0 41 -3 41 -20 0 -11 4 -20 10 -20 5 0 9 4 7 8 -1
5 13 21 31 36 17 15 32 36 32 46 0 10 10 20 22 24 38 10 58 7 58 -9 0 -21 16
-19 40 7 24 26 26 38 5 38 -8 0 -15 3 -15 8 0 14 40 42 60 42 11 0 20 5 20 10
0 6 -7 10 -15 10 -8 0 -15 7 -15 15 0 12 16 15 80 15 l80 0 0 30 c0 28 2 30
40 30 24 0 40 5 40 12 0 6 3 8 7 5 3 -4 7 -28 7 -54 1 -44 3 -48 26 -48 21 0
26 6 31 40 l6 40 2 -48 c1 -46 2 -48 24 -40 12 4 37 7 55 6 33 -2 35 1 36 52
1 23 6 31 24 33 18 3 22 10 22 43 0 21 4 39 9 39 12 0 12 68 0 76 -5 3 -9 -13
-9 -35 0 -23 -4 -41 -10 -41 -6 0 -10 32 -10 75 0 43 4 75 10 75 6 0 10 -11
10 -25 0 -22 4 -25 40 -25 37 0 52 -11 31 -24 -9 -6 -13 -76 -5 -76 2 0 13 8
23 18 10 9 31 27 46 40 l27 22 30 -25 c16 -14 33 -25 37 -25 5 0 8 -12 9 -27
0 -61 3 -70 23 -79 19 -9 22 -18 21 -74 -1 -77 4 -100 24 -100 8 0 14 -7 14
-15 0 -9 9 -15 23 -15 21 1 21 1 3 12 -17 10 -16 12 15 25 27 11 31 16 19 24
-11 8 -12 12 -3 15 7 3 9 12 6 20 -3 8 0 14 6 14 6 0 11 -16 11 -35 0 -19 3
-35 8 -35 18 1 27 17 25 45 -5 68 -5 97 1 102 11 11 19 -6 18 -37 0 -20 4 -30
14 -30 8 0 14 -6 14 -14 0 -9 25 -15 97 -20 116 -8 125 -3 125 73 0 67 21 86
42 37 8 -19 24 -41 35 -48 15 -9 21 -23 21 -50 0 -38 0 -38 40 -38 22 0 40 -4
40 -10 0 -5 -17 -10 -37 -10 -35 0 -36 -1 -17 -15 19 -14 19 -14 -1 -15 -17 0
-17 -2 -5 -10 13 -8 13 -11 1 -19 -11 -7 -10 -11 5 -19 12 -6 21 -23 22 -43 2
-30 30 -69 49 -69 12 0 37 41 44 73 5 21 2 30 -12 38 -11 5 -17 14 -14 19 9
14 -6 40 -24 41 -45 3 44 17 112 18 l77 1 -4 36 c-4 30 -1 37 20 46 13 6 24
19 24 30 0 16 9 18 79 18 57 0 80 4 84 14 3 7 19 16 35 19 18 4 33 14 37 27 5
17 15 20 61 20 l54 0 2 38 c0 20 2 43 2 50 1 8 10 18 20 24 15 8 16 12 5 19
-12 8 -12 11 1 20 11 8 12 12 2 16 -13 5 -7 23 9 23 5 0 9 -22 9 -50 0 -39 5
-54 26 -75 22 -22 25 -32 20 -70 l-5 -45 52 0 c29 0 63 -3 77 -6 21 -5 22 -4
8 6 -25 15 -24 70 1 77 17 4 20 21 12 76 -1 4 -8 7 -16 7 -10 0 -14 10 -13 35
1 34 3 35 40 35 36 0 38 2 38 30 0 28 -2 30 -40 30 -22 0 -40 5 -40 10 0 6 9
10 19 10 17 0 19 6 18 43 -2 37 1 42 21 45 17 3 22 -2 22 -19 0 -17 3 -19 14
-9 8 6 12 18 9 25 -3 9 8 22 27 33 17 11 31 22 31 26 -4 29 5 45 39 71 21 17
39 36 40 43 0 13 19 16 36 4 13 -8 28 -75 15 -67 -9 5 -5 -26 7 -55 3 -8 6
-22 7 -30 0 -9 8 -14 20 -12 16 2 14 -1 -6 -13 -37 -20 -42 -41 -16 -60 19
-13 20 -17 7 -25 -14 -9 -44 -14 -62 -11 -13 2 -9 -17 5 -22 10 -4 10 -6 0 -6
-23 -2 -14 -39 15 -61 15 -12 21 -19 15 -15 -7 3 -20 2 -29 -3 -14 -8 -13 -12
10 -30 l26 -20 -25 -20 c-35 -27 -35 -79 -1 -88 28 -7 25 -29 -7 -55 -13 -11
-17 -21 -12 -30 13 -19 15 -59 4 -59 -20 0 -8 -20 14 -21 18 -1 18 -2 4 -6
-12 -3 -16 -10 -13 -20 4 -9 1 -22 -5 -29 -10 -12 -9 -13 5 -8 9 4 16 3 15 -2
-4 -24 2 -36 16 -30 13 4 14 2 5 -15 -6 -11 -16 -17 -23 -13 -9 5 -9 4 0 -6 7
-7 8 -19 4 -29 -16 -32 -33 -93 -27 -98 3 -4 6 -1 6 5 0 7 7 12 17 12 15 0 15
-1 0 -18 -12 -13 -14 -21 -6 -29 8 -8 8 -17 0 -30 -13 -25 -10 -65 5 -59 14 6
6 -42 -14 -71 -13 -21 -13 -23 7 -23 25 0 26 -8 6 -46 -16 -31 -21 -104 -6
-104 4 0 6 -11 3 -25 -2 -14 -8 -22 -13 -19 -5 3 -6 -2 -3 -10 7 -19 24 -21
24 -4 0 6 2 9 5 6 3 -3 -4 -22 -16 -42 -16 -28 -20 -47 -16 -77 4 -29 1 -42
-8 -46 -13 -4 -41 -69 -37 -84 0 -4 -8 -15 -18 -24 -23 -20 -28 -44 -6 -26 10
8 16 9 21 1 9 -14 28 -13 22 3 -3 7 6 13 25 14 l29 2 -21 -28 c-11 -16 -20
-36 -20 -45 0 -18 -20 -57 -35 -68 -20 -15 6 -8 30 8 24 15 25 15 25 -4 0 -11
-7 -25 -15 -32 -17 -14 -20 -46 -6 -54 5 -4 12 0 14 6 4 8 6 7 6 -4 1 -9 -3
-20 -9 -23 -5 -3 -15 -16 -21 -27 -10 -19 -9 -20 11 -15 20 5 21 4 6 -18 -21
-32 -21 -32 16 -51 25 -13 78 -21 162 -24 4 0 6 -11 4 -25 -3 -14 -1 -28 3
-31 5 -3 9 0 9 5 0 6 5 11 10 11 6 0 10 -7 10 -16 0 -10 6 -14 15 -10 10 4 15
-1 15 -15 0 -16 4 -19 20 -14 23 7 26 -10 8 -50 -10 -22 -9 -32 7 -61 21 -39
31 -43 40 -15 9 30 35 35 35 6 0 -31 16 -40 29 -18 9 15 10 13 11 -14 0 -18 5
-33 10 -33 6 0 10 7 10 16 0 14 2 14 15 0 8 -8 15 -24 15 -35 0 -23 20 -73 34
-82 5 -4 6 -21 3 -38 -5 -24 -3 -29 9 -24 8 3 13 12 10 19 -3 7 0 16 6 20 11
7 8 -21 -7 -61 l-8 -20 17 20 c16 19 17 17 11 -45 -5 -61 -5 -63 9 -40 15 25
15 24 16 -20 0 -40 3 -46 21 -47 12 -1 26 -6 31 -11 4 -4 12 -52 17 -107 6
-54 14 -101 19 -104 4 -3 8 -15 9 -26 0 -11 5 -47 11 -80 6 -33 18 -109 27
-170 8 -60 19 -135 25 -165 5 -30 12 -87 16 -126 5 -58 4 -73 -10 -87 -10 -9
-14 -17 -10 -17 4 0 0 -8 -8 -17 -18 -21 -20 -54 -4 -51 12 3 16 -4 16 -28 0
-8 -4 -13 -9 -9 -5 3 1 -15 14 -40 14 -25 22 -45 18 -45 -3 0 0 -7 7 -15 7 -8
16 -13 20 -10 4 2 6 -20 5 -50 -2 -39 2 -58 11 -63 8 -4 16 -28 19 -52 9 -71
24 -621 19 -660 l-5 -35 16 29 c12 23 15 59 14 175 -2 186 -4 172 29 160 23
-8 52 -47 52 -71 0 -16 35 -88 42 -88 5 0 8 -9 8 -20 0 -11 9 -25 20 -32 11
-7 20 -20 20 -29 0 -9 7 -22 15 -29 9 -7 14 -19 11 -26 -3 -7 6 -20 19 -28 14
-9 28 -28 31 -41 3 -14 15 -30 25 -36 11 -5 19 -16 19 -24 0 -8 4 -15 10 -15
5 0 16 -13 25 -30 9 -17 22 -30 30 -30 8 0 15 -7 15 -15 0 -9 9 -15 21 -15 11
0 33 -7 49 -16 15 -10 35 -14 45 -11 22 9 10 27 -18 27 -18 0 -19 2 -7 10 10
6 11 10 3 10 -7 0 -13 7 -13 15 0 8 -9 19 -20 25 -11 6 -19 19 -18 28 2 11 -5
18 -19 20 -13 2 -23 9 -23 15 -1 21 -38 57 -59 57 -12 0 -21 6 -21 15 0 8 7
15 15 15 18 0 19 5 3 33 l-12 22 -7 -25 c-7 -24 -7 -23 -8 6 -1 17 -7 37 -15
43 -8 7 -18 25 -21 41 -3 16 -13 31 -21 34 -8 3 -14 16 -14 28 0 13 -14 43
-30 67 -17 24 -30 50 -30 58 0 7 -4 13 -10 13 -5 0 -12 11 -16 25 -3 14 -11
25 -16 25 -6 0 -8 12 -5 26 3 15 -2 42 -9 60 -8 19 -17 75 -21 124 -5 74 -9
90 -21 85 -9 -3 -12 0 -9 9 3 7 0 19 -6 25 -9 10 -7 16 8 28 14 11 16 17 7 20
-6 3 -10 9 -7 13 3 5 -2 43 -10 84 -9 42 -18 106 -21 143 -3 38 -9 84 -14 103
-5 19 -9 66 -9 104 -1 38 -5 74 -10 80 -4 6 -11 40 -15 76 -6 66 -16 125 -36
215 -5 28 -8 63 -6 79 3 19 -2 35 -15 49 -14 15 -16 24 -8 33 8 10 7 18 -6 31
-13 12 -16 28 -12 59 3 33 1 44 -12 49 -14 6 -14 8 2 19 21 16 22 46 1 46 -8
0 -13 4 -10 8 3 4 1 25 -3 45 -10 40 -4 52 16 36 19 -16 17 8 -2 28 -8 8 -13
18 -11 21 2 4 7 25 10 46 7 44 16 60 17 30 0 -16 2 -15 10 5 7 17 5 36 -6 65
-20 55 -18 354 4 379 7 9 16 45 18 80 4 51 2 66 -12 80 -13 14 -15 27 -10 67
5 34 3 50 -4 50 -6 0 -11 9 -11 20 0 11 5 20 10 20 6 0 10 -4 10 -10 0 -5 10
-20 21 -31 l22 -22 -8 29 c-4 16 -8 45 -9 64 0 20 -8 40 -19 48 -14 11 -15 17
-6 34 6 12 9 38 6 59 -6 46 11 100 42 133 15 16 22 32 18 46 -3 11 -1 18 4 14
13 -8 11 10 -3 24 -8 8 -5 14 15 21 15 6 27 18 27 26 0 25 29 75 44 75 15 0
26 28 31 77 4 37 21 73 35 73 6 0 10 5 10 11 0 6 -6 9 -14 6 -24 -9 -27 5 -5
21 11 8 18 20 15 28 -7 17 6 18 22 2 9 -9 12 -8 13 8 1 10 1 25 0 32 -1 6 3
12 9 12 5 0 10 5 10 11 0 6 9 22 20 36 11 14 20 31 20 37 0 6 -5 4 -10 -4 -8
-13 -10 -12 -10 4 0 15 5 17 30 13 29 -6 42 6 18 17 -10 3 -8 9 5 19 9 8 17
19 17 26 0 6 5 11 10 11 6 0 10 7 10 15 0 8 8 15 19 15 11 0 27 16 42 44 13
25 31 47 40 49 9 3 23 17 30 33 8 16 20 30 27 30 6 1 17 2 22 3 6 0 8 12 4 26
-5 22 -3 25 20 25 16 0 26 6 26 15 0 22 28 18 35 -5 8 -24 35 -27 35 -3 0 9
-10 27 -22 40 -16 17 -19 26 -11 34 8 8 15 5 23 -12 7 -13 14 -25 15 -27 3 -3
31 13 63 34 2 1 10 20 17 41 l14 38 1 -34 c0 -45 13 -31 16 17 4 57 9 73 27
84 10 5 15 13 12 19 -3 5 0 6 8 3 8 -3 28 7 46 21 17 15 38 25 46 22 8 -4 17
2 20 15 5 14 10 17 18 9 16 -16 25 -14 32 8 3 11 15 23 26 26 10 4 19 14 19
24 0 19 126 87 205 112 22 6 54 18 72 26 17 7 40 13 51 13 27 0 37 17 22 35
-9 11 -9 15 -1 15 6 0 11 7 11 15 0 9 9 15 24 15 13 0 43 7 66 15 23 8 69 15
101 15 33 0 59 4 59 10 0 6 13 10 29 10 17 0 33 5 36 10 12 20 35 10 35 -15 0
-23 3 -25 28 -19 15 4 35 11 44 16 19 9 87 1 109 -13 12 -7 11 -13 -3 -39 -15
-27 -15 -30 -1 -30 9 0 22 8 29 18 11 14 15 14 23 3 5 -8 16 -11 30 -6 12 4
21 2 21 -4 0 -6 13 -11 29 -11 16 0 31 -6 34 -15 7 -18 96 -10 141 12 26 14
30 13 39 -2 8 -14 11 -15 19 -4 7 11 11 11 15 2 6 -15 53 -18 53 -3 0 6 -10
10 -23 10 -29 0 -57 44 -39 62 16 16 28 2 13 -16 -10 -11 -4 -13 34 -8 31 3
45 1 45 -7 0 -9 10 -10 31 -6 26 6 30 4 27 -11 -2 -10 -14 -21 -28 -24 -18 -5
-24 -12 -22 -26 2 -10 8 -21 14 -23 6 -2 18 -11 28 -21 23 -23 90 -34 90 -14
0 10 7 13 24 8 13 -3 33 -1 44 5 16 8 25 6 45 -9 14 -12 29 -29 32 -40 4 -13
15 -20 31 -20 14 0 27 -7 30 -15 4 -8 12 -15 20 -15 8 0 14 -7 14 -15 0 -11
-11 -15 -40 -15 -33 0 -40 -3 -40 -20 0 -11 -4 -20 -10 -20 -5 0 -10 -12 -10
-26 0 -37 45 -77 76 -70 14 4 24 2 24 -4 0 -5 -6 -10 -12 -10 -7 -1 -1 -8 15
-16 30 -16 35 -32 12 -40 -26 -10 -16 -22 25 -29 45 -8 54 -31 15 -41 -27 -7
-35 -40 -14 -61 6 -6 8 -16 4 -22 -9 -16 -25 -4 -19 14 9 21 -63 32 -83 12
-14 -14 -12 -19 20 -51 22 -22 46 -36 61 -36 16 0 27 -7 31 -20 3 -11 10 -20
15 -20 7 0 18 27 16 41 -1 7 30 39 39 39 3 0 4 -4 0 -9 -3 -5 4 -13 16 -16 12
-4 18 -12 15 -21 -4 -9 4 -18 19 -24 14 -5 24 -13 23 -17 -2 -14 15 -48 29
-56 7 -4 13 -17 13 -27 0 -13 7 -20 20 -20 11 0 20 -6 20 -14 0 -7 7 -19 15
-26 12 -10 15 -37 15 -120 0 -84 3 -110 15 -120 18 -15 4 -37 -33 -51 -24 -9
-22 -29 4 -29 18 0 18 2 -6 -45 -17 -34 -19 -51 -14 -114 5 -52 13 -80 26 -93
10 -10 18 -29 18 -42 0 -21 6 -24 40 -28 33 -3 40 0 40 14 0 10 4 18 9 18 18
0 27 -26 25 -69 -2 -52 3 -71 21 -71 8 0 17 -5 21 -12 4 -6 3 -8 -3 -5 -12 7
-26 -27 -23 -55 1 -14 -6 -17 -37 -14 -21 2 -50 9 -65 15 -25 9 -28 8 -28 -9
0 -10 4 -22 10 -25 20 -12 9 -25 -21 -25 -46 0 -138 -32 -253 -86 -27 -13 -53
-21 -57 -18 -5 3 -9 0 -9 -5 0 -6 7 -11 17 -11 14 0 14 -2 -3 -17 -11 -10 -18
-27 -16 -39 2 -13 -6 -25 -23 -34 -33 -18 -53 -50 -30 -50 9 0 15 -9 15 -25 0
-25 -14 -33 -25 -15 -13 21 -26 -3 -24 -44 3 -50 -4 -64 -38 -77 -19 -7 -24
-14 -20 -30 8 -31 -2 -48 -25 -41 -13 3 -27 -4 -43 -22 -12 -14 -26 -26 -30
-26 -13 0 -34 -34 -35 -56 0 -12 -7 -27 -15 -34 -8 -7 -15 -26 -15 -43 0 -17
-8 -35 -17 -42 -14 -10 -15 -16 -5 -27 6 -8 9 -17 6 -20 -3 -3 -14 -43 -25
-89 -19 -79 -20 -84 -3 -96 11 -8 16 -23 14 -45 -6 -66 0 -145 16 -212 13 -53
14 -73 5 -87 -14 -24 -14 -42 1 -57 7 -7 11 -33 9 -63 -2 -34 2 -54 12 -62 8
-7 20 -28 27 -47 8 -19 25 -50 38 -67 24 -32 24 -33 4 -33 -16 0 -20 -4 -15
-17 4 -11 8 -12 11 -5 2 7 8 12 14 12 6 0 9 -23 7 -57 -2 -32 0 -64 5 -72 6
-9 4 -18 -7 -26 -10 -7 -17 -22 -17 -34 0 -21 -54 -81 -73 -81 -4 0 -6 -4 -2
-9 7 -12 -22 -41 -41 -41 -8 0 -14 -4 -14 -10 0 -5 5 -10 10 -10 19 0 10 -16
-18 -32 -17 -10 -46 -16 -74 -15 -33 1 -52 -3 -67 -17 -11 -10 -19 -22 -16
-26 2 -3 35 -12 72 -19 51 -10 84 -10 132 -2 68 11 81 9 81 -15 0 -8 4 -12 10
-9 6 4 10 -5 10 -19 0 -18 -5 -26 -17 -26 -14 0 -18 -9 -19 -37 0 -20 -6 -39
-12 -41 -17 -5 -15 -29 2 -35 8 -3 16 -16 18 -29 2 -13 9 -22 16 -20 6 1 12
-5 12 -13 0 -9 7 -18 15 -21 36 -14 2 -63 -41 -58 -15 1 -48 -5 -73 -15 -25
-10 -66 -21 -91 -25 -24 -4 -48 -12 -51 -18 -10 -15 -98 -37 -105 -27 -3 5
-16 9 -30 9 -14 0 -23 -4 -20 -9 8 -13 -85 -20 -108 -8 -12 6 -26 5 -43 -4
-20 -11 -31 -10 -71 4 -34 12 -75 17 -146 15 -58 -1 -92 -5 -80 -9 21 -9 22
-9 -91 -13 -33 -2 -79 -6 -102 -11 -51 -9 -93 0 -93 21 0 8 -4 13 -9 10 -14
-9 -40 39 -34 64 5 17 2 21 -12 19 -21 -4 -53 -56 -57 -93 -2 -13 -9 -30 -15
-37 -6 -8 -14 -24 -17 -36 -4 -13 -11 -23 -16 -23 -11 0 -30 -57 -30 -93 0
-21 4 -28 14 -24 8 3 16 2 18 -3 2 -4 15 -6 30 -3 15 3 26 9 23 13 -7 11 18
54 33 57 6 2 24 -2 39 -9 15 -6 31 -11 35 -10 4 1 12 -8 18 -19 7 -11 18 -18
25 -15 8 3 21 -1 29 -9 8 -8 19 -15 24 -15 5 0 9 -8 8 -17 -1 -12 10 -20 36
-27 20 -5 38 -16 41 -25 2 -11 26 -21 68 -30 35 -8 73 -18 84 -22 11 -4 56
-15 100 -25 44 -10 86 -23 93 -31 18 -18 100 -16 136 2 26 14 31 14 38 1 5 -8
16 -12 28 -9 11 3 27 0 35 -7 8 -6 19 -9 26 -5 6 4 22 2 35 -6 18 -9 27 -10
36 -1 7 7 17 8 29 1 24 -12 88 -14 119 -2 41 15 58 6 57 -30 -1 -21 -7 -32
-17 -32 -8 0 -19 -6 -23 -13 -5 -7 -17 -10 -28 -7 -13 4 -19 2 -19 -8 0 -26
-25 -64 -39 -59 -8 3 -11 0 -7 -6 3 -5 -1 -13 -10 -16 -13 -5 -14 -9 -4 -21
18 -21 -13 -21 -34 1 -18 18 -21 11 -6 -17 10 -18 7 -19 -57 -21 -37 -1 -76
-2 -85 -1 -10 0 -18 -5 -18 -10 0 -5 -7 -7 -15 -4 -8 4 -17 2 -20 -2 -8 -13
22 -17 120 -15 143 3 268 19 297 38 26 17 26 17 33 -5 5 -14 3 -25 -4 -27 -6
-2 -11 -8 -11 -13 0 -11 32 6 81 44 20 15 44 27 53 27 9 0 19 7 22 15 3 8 14
17 25 20 10 4 19 12 19 18 0 7 23 44 50 82 28 39 55 81 60 94 6 13 17 29 26
35 8 6 19 38 24 70 8 51 7 63 -7 78 -15 17 -15 19 0 36 10 10 17 23 17 28 0
11 100 45 112 38 4 -3 8 -12 8 -20 0 -8 7 -14 15 -14 8 0 15 7 15 15 0 8 4 15
10 15 13 0 30 -34 30 -59 0 -12 5 -21 10 -21 6 0 10 -7 10 -15 0 -9 11 -20 24
-25 13 -5 27 -14 31 -19 12 -20 23 -11 46 33 12 24 30 47 40 49 20 5 27 27 9
27 -5 0 -10 -4 -10 -10 0 -5 -4 -10 -10 -10 -5 0 -8 6 -6 13 3 6 7 24 10 38 5
23 10 25 51 24 53 -2 65 11 63 69 -1 24 -6 36 -15 36 -10 0 -12 6 -8 19 9 30
-11 33 -24 4 -10 -22 -14 -24 -22 -12 -5 7 -9 23 -9 35 0 11 -7 29 -15 40 -8
10 -15 27 -15 37 0 20 -10 22 -33 4 -17 -12 -19 -48 -4 -63 9 -10 -12 -34 -29
-34 -16 0 -19 26 -4 33 6 3 5 4 -2 3 -7 -2 -28 3 -46 10 -18 7 -36 13 -40 13
-29 -4 -44 6 -63 44 -24 48 -128 149 -147 142 -7 -3 -18 7 -24 20 -6 14 -15
25 -20 25 -13 0 -9 50 5 51 6 1 1 5 -13 9 -23 7 -23 8 -4 9 12 1 25 9 28 19
15 40 77 122 94 122 5 0 14 11 20 25 6 14 16 25 22 25 5 0 10 7 10 16 0 8 -5
12 -11 8 -7 -4 -10 7 -8 32 2 27 -1 38 -9 36 -7 -1 -14 3 -16 10 -19 68 -30
98 -37 98 -4 0 -10 14 -14 30 -4 17 -16 35 -28 42 -29 15 -64 53 -72 78 -3 11
-12 20 -18 20 -11 0 -26 24 -55 90 -14 30 -31 117 -37 185 -7 79 -16 129 -27
142 -5 6 -13 39 -19 74 -6 35 -16 77 -23 94 -40 90 -41 98 -20 220 4 22 19 55
35 73 16 18 29 43 28 55 l0 22 -9 -22 c-10 -24 -36 -31 -42 -12 -2 7 1 34 6
61 8 40 21 60 78 118 47 49 75 70 91 70 26 0 52 22 40 33 -3 4 -1 7 5 7 7 0
12 -7 12 -15 0 -8 5 -15 10 -15 6 0 10 7 10 16 0 12 7 15 30 12 18 -3 29 0 27
6 -2 5 5 18 15 28 18 18 38 24 38 11 0 -9 187 -7 249 2 24 4 46 3 50 -1 3 -5
26 -16 51 -24 50 -17 52 -21 50 -125 0 -32 -5 -64 -10 -69 -6 -6 -54 -9 -111
-8 -100 3 -231 -10 -299 -30 -63 -17 -142 -62 -186 -106 -48 -46 -52 -57 -29
-66 16 -6 21 -36 5 -36 -5 0 -13 8 -19 18 -8 15 -12 12 -26 -21 -24 -57 -17
-75 17 -48 15 12 31 22 35 23 9 1 12 1 63 15 21 5 52 5 75 0 22 -5 66 -10 98
-12 32 -2 61 -6 64 -9 4 -3 17 -6 30 -6 14 0 21 -4 18 -10 -8 -13 14 -13 53 1
27 9 40 7 85 -14 48 -22 55 -28 60 -62 7 -43 23 -65 46 -65 9 0 30 -15 46 -32
15 -18 25 -25 22 -15 -5 14 -3 18 11 15 11 -2 18 -14 20 -35 3 -32 4 -32 27
-17 26 17 45 12 45 -12 0 -16 16 -19 25 -4 8 13 25 13 25 0 0 -5 -7 -10 -15
-10 -19 0 -19 -11 0 -36 8 -10 15 -27 15 -36 0 -10 4 -18 9 -18 17 0 22 -34 7
-46 -21 -15 -20 -21 3 -27 15 -3 21 -17 26 -53 3 -27 10 -57 16 -66 14 -26 11
-82 -6 -104 -19 -26 -19 -40 3 -62 18 -18 38 -107 22 -97 -4 3 -11 -2 -14 -11
-10 -25 -7 -84 4 -84 13 0 13 -67 0 -75 -6 -4 -9 -28 -7 -55 3 -29 0 -51 -6
-53 -6 -2 -11 -24 -12 -50 -2 -51 -22 -87 -36 -65 -6 9 -9 9 -9 1 0 -6 5 -15
10 -18 6 -4 8 -11 4 -16 -3 -5 -9 -7 -14 -4 -9 5 -20 -18 -20 -43 0 -9 -9 -28
-20 -42 -11 -14 -20 -34 -20 -46 0 -12 -11 -37 -23 -56 -30 -44 -44 -118 -22
-118 18 0 18 1 4 -39 -6 -17 -15 -31 -19 -31 -4 0 -11 -20 -14 -45 -4 -25 -11
-45 -15 -45 -4 0 -8 -29 -8 -64 0 -66 -10 -85 -45 -99 -17 -6 -20 -30 -6 -53
8 -12 -23 -44 -59 -63 -13 -6 -23 -18 -23 -26 0 -18 -27 -20 -33 -2 -6 17 -47
-20 -47 -43 0 -37 -22 -80 -41 -80 -10 0 -26 -11 -35 -25 -11 -17 -29 -27 -57
-32 -38 -6 -56 -19 -98 -72 -8 -10 -15 -22 -16 -27 -1 -5 -6 -20 -12 -34 -7
-18 -10 -20 -10 -7 -1 9 -5 17 -11 17 -12 0 -13 -27 -1 -34 11 -7 -33 -133
-56 -158 -11 -13 -17 -35 -16 -68 0 -36 -3 -50 -13 -50 -15 0 -37 -36 -30 -49
3 -5 -3 -20 -14 -34 -11 -14 -20 -34 -20 -45 0 -11 -7 -25 -15 -32 -8 -7 -15
-20 -15 -29 0 -9 -11 -28 -25 -43 -14 -15 -25 -32 -25 -37 0 -5 -9 -13 -20
-16 -11 -3 -20 -11 -20 -16 0 -5 -8 -13 -17 -16 -19 -8 -52 -43 -53 -56 0 -16
-25 -32 -70 -47 -26 -9 -49 -24 -56 -37 -6 -13 -41 -39 -79 -58 -63 -33 -75
-36 -160 -37 -50 0 -108 5 -129 12 -20 6 -55 10 -77 8 -21 -2 -39 0 -39 5 0 5
-12 6 -27 3 -38 -10 -44 -10 -162 -2 -56 3 -110 10 -120 15 -9 5 -28 9 -43 9
-31 -1 -118 39 -118 53 0 6 -5 7 -11 4 -5 -4 -27 4 -47 18 -20 13 -58 35 -84
48 -27 12 -48 26 -48 30 0 4 -11 10 -25 13 -26 7 -52 25 -89 62 -12 11 -46 33
-77 48 -54 26 -109 74 -109 96 0 5 -6 10 -14 10 -8 0 -16 7 -20 15 -3 8 -15
15 -26 15 -11 0 -20 5 -20 10 0 6 -4 10 -10 10 -20 0 -10 -41 13 -49 13 -5 29
-16 36 -25 7 -9 20 -16 27 -16 8 0 14 -10 14 -25 0 -21 5 -25 31 -25 20 0 29
-4 26 -12 -6 -20 24 -37 66 -38 36 0 50 -13 25 -23 -10 -4 -10 -6 0 -6 6 -1
12 -8 12 -17 0 -22 29 -43 58 -44 14 0 22 -6 22 -16 0 -18 53 -74 70 -74 5 0
10 -6 10 -14 0 -8 11 -17 25 -20 26 -7 35 -26 13 -26 -7 0 14 -14 47 -30 32
-17 66 -37 75 -45 9 -8 22 -15 28 -15 7 0 12 -10 12 -22 1 -23 21 -58 34 -58
3 0 6 7 6 16 0 11 9 7 30 -14 16 -17 51 -38 77 -48 27 -10 50 -21 53 -26 9
-11 77 -38 83 -32 3 3 32 -4 64 -16 32 -13 72 -23 88 -24 51 -3 105 -18 99
-27 -5 -9 0 -11 46 -14 14 -1 41 -7 60 -13 19 -6 54 -14 77 -17 34 -5 45 -12
55 -35 7 -16 20 -31 30 -33 19 -5 36 -55 22 -66 -5 -3 -10 -16 -12 -29 -2 -12
-10 -35 -18 -50 -7 -15 -14 -33 -14 -39 0 -7 -4 -13 -10 -13 -14 0 -41 -44
-44 -74 -1 -14 -15 -38 -30 -52 -14 -15 -38 -50 -52 -78 -14 -28 -37 -62 -52
-76 -31 -29 -151 -110 -164 -110 -11 0 -28 -45 -28 -75 0 -18 8 -26 35 -35 24
-8 35 -18 35 -31 0 -10 -6 -19 -14 -19 -8 0 -16 -6 -19 -12 -6 -16 65 -15 136
1 63 14 98 0 73 -28 -19 -21 -21 -41 -3 -41 6 0 0 -12 -15 -25 -16 -13 -28
-29 -28 -35 0 -5 -9 -10 -20 -10 -13 0 -24 -10 -30 -25 -15 -40 -62 -78 -153
-125 -16 -8 -33 -23 -39 -33 -8 -15 -5 -20 11 -24 11 -3 18 -9 15 -14 -4 -8
25 -14 49 -10 4 0 7 -3 7 -9 0 -13 40 -13 60 0 12 8 10 10 -8 10 -14 0 -21 4
-16 11 4 6 20 8 40 5 20 -4 42 -2 55 6 17 10 23 10 26 1 6 -17 30 -17 35 -1 3
7 19 13 37 14 17 1 41 10 52 20 23 21 116 21 137 0 15 -14 -1 -73 -26 -93 -17
-14 -8 -48 10 -37 8 5 9 2 5 -10 -19 -50 -18 -65 9 -105 14 -23 33 -41 42 -41
8 0 30 16 49 35 19 19 38 35 43 35 6 0 10 6 10 14 0 8 13 28 30 46 16 18 27
36 24 41 -3 5 2 12 10 15 9 3 16 17 16 30 0 13 5 24 12 24 6 0 9 3 5 6 -3 3
10 20 29 37 19 18 34 37 34 44 0 6 13 20 30 30 21 12 28 23 24 35 -3 12 0 18
10 18 9 0 16 -3 16 -7 0 -5 16 -19 35 -32 31 -21 35 -28 31 -58 -2 -18 1 -36
5 -39 5 -3 9 0 9 6 0 6 10 0 23 -14 22 -24 76 -48 63 -28 -14 24 14 21 30 -3
9 -14 22 -25 29 -25 19 0 24 -34 9 -55 -16 -22 -18 -61 -5 -70 6 -3 26 11 46
31 27 27 40 33 48 25 8 -8 6 -21 -8 -48 -11 -20 -20 -51 -21 -70 -1 -18 -22
-76 -48 -128 -25 -52 -46 -97 -46 -100 0 -7 -97 -152 -124 -186 -12 -14 -30
-38 -41 -53 -60 -85 -243 -266 -355 -352 -109 -84 -210 -147 -315 -198 -192
-92 -275 -117 -568 -170 -150 -27 -351 -33 -497 -16 -125 15 -397 65 -468 86
-113 33 -382 136 -382 146 0 4 -7 8 -16 8 -23 0 -308 140 -402 199 -46 28 -87
51 -91 51 -5 0 -25 13 -46 30 -21 16 -42 30 -46 30 -9 0 -48 28 -159 113 -30
23 -70 52 -88 64 -18 13 -42 32 -54 43 -12 11 -28 20 -35 20 -7 0 -13 5 -13
10 0 15 -94 102 -141 131 -21 13 -39 29 -39 36 0 6 -9 15 -21 18 -11 4 -18 9
-16 12 8 7 -28 40 -52 48 -12 3 -21 11 -21 16 0 5 -10 10 -22 10 -18 1 -19 2
-5 6 22 6 17 29 -6 27 -10 -1 -13 4 -10 13 5 13 2 13 -15 4 -18 -9 -19 -8 -15
10 3 12 2 24 -3 28 -5 3 -16 20 -26 36 -9 17 -26 35 -37 41 -12 6 -18 14 -14
17 3 4 1 7 -5 7 -7 0 -12 6 -12 14 0 8 -13 28 -30 46 -16 18 -30 39 -30 46 0
8 -7 17 -15 20 -8 4 -15 12 -15 20 0 8 -4 14 -10 14 -5 0 -10 6 -10 14 0 8
-13 23 -30 33 -16 9 -30 26 -30 36 0 18 -24 60 -47 85 -7 7 -13 19 -13 27 0
21 -29 70 -42 71 -7 1 -19 2 -26 3 -8 0 -13 11 -12 24 4 39 0 47 -19 47 -15 0
-18 5 -13 22 4 17 2 20 -12 15 -10 -4 -15 -3 -11 3 7 11 -39 24 -59 17 -8 -3
-16 2 -19 14 -3 10 -1 17 3 14 4 -3 19 -1 32 4 25 10 26 9 -52 34 -25 8 -46
22 -48 31 -4 18 13 22 23 6 8 -13 45 -13 45 0 0 6 -11 10 -25 10 -16 0 -25 6
-25 15 0 9 -7 18 -15 21 -19 8 -19 24 0 24 8 0 15 5 15 10 0 19 -27 10 -61
-20 -19 -16 -45 -38 -58 -48 -23 -18 -24 -22 -13 -59 7 -22 12 -54 12 -71 0
-28 -3 -30 -40 -34 -39 -3 -43 7 -5 14 14 2 21 12 23 36 3 33 -14 45 -24 17
-4 -8 -10 -12 -15 -9 -5 3 -9 0 -9 -6 0 -6 -5 -8 -11 -5 -15 10 -69 -15 -69
-31 0 -8 -4 -14 -10 -14 -5 0 -10 5 -10 10 0 15 -27 12 -33 -3 -3 -8 -29 -30
-59 -50 -66 -45 -148 -119 -148 -135 0 -7 -7 -12 -16 -12 -8 0 -27 -13 -42
-28 -15 -16 -43 -39 -62 -53 -19 -13 -40 -28 -46 -34 -6 -5 -28 -23 -49 -40
-136 -105 -373 -327 -384 -358 -6 -17 -42 -47 -57 -47 -19 0 -28 -21 -13 -31
7 -4 10 -11 6 -15 -3 -4 -13 -1 -22 6 -15 13 -14 14 -30 -35 -2 -8 -13 -15
-22 -15 -11 0 -23 -12 -30 -29 -9 -24 -15 -29 -33 -24 -15 4 -21 2 -17 -4 8
-12 -20 -26 -34 -17 -5 3 -9 -2 -9 -10 0 -8 8 -20 18 -25 16 -10 16 -10 0 -11
-10 0 -18 -4 -18 -10 0 -5 -8 -9 -17 -7 -10 1 -18 -2 -18 -8 0 -5 8 -10 18 -9
9 0 17 -3 17 -8 0 -4 -7 -8 -16 -8 -10 0 -14 -6 -11 -14 4 -10 -4 -15 -24 -18
-31 -5 -36 1 -17 20 9 9 9 12 1 12 -16 0 -27 -20 -28 -50 0 -20 -6 -26 -27
-28 -16 -2 -28 -9 -28 -18 0 -8 -7 -14 -15 -14 -8 0 -15 -4 -15 -10 0 -5 -9
-10 -20 -10 -12 0 -20 -7 -20 -16 0 -10 -6 -14 -14 -11 -10 4 -18 -5 -25 -24
-8 -24 -15 -29 -30 -24 -21 6 -51 -26 -51 -57 0 -13 -8 -18 -25 -18 -17 0 -25
-6 -25 -17 0 -9 -3 -13 -6 -10 -4 3 -16 1 -28 -5 -21 -11 -28 -17 -96 -80 -19
-18 -38 -33 -42 -34 -5 -1 -11 -2 -14 -3 -4 0 0 -8 7 -18 13 -15 11 -16 -12
-10 -18 5 -31 2 -39 -8 -6 -8 -32 -26 -56 -40 -44 -26 -58 -57 -31 -69 10 -5
10 -7 0 -12 -9 -4 -13 -29 -13 -75 0 -55 3 -69 15 -69 8 0 15 -5 15 -11 0 -6
-7 -9 -15 -5 -13 4 -15 -14 -14 -134 1 -115 3 -138 15 -133 8 3 14 0 14 -6 0
-6 -7 -11 -15 -11 -13 0 -15 -37 -15 -270 l0 -270 3778 0 c2719 0 3781 3 3789
11 8 8 17 8 31 0 23 -12 422 -16 422 -3 0 4 13 22 29 41 l28 33 46 -20 c34
-15 47 -27 47 -41 l0 -21 1509 0 1510 0 -25 62 c-14 35 -29 73 -34 86 -15 34
-25 57 -80 192 -29 69 -60 143 -71 165 -22 48 -63 150 -90 223 -11 30 -31 77
-44 105 -14 28 -25 56 -25 62 0 7 -14 38 -30 68 -17 31 -37 76 -46 99 -9 24
-47 106 -84 183 -37 77 -75 158 -85 180 -47 108 -153 306 -176 331 -10 11 -19
24 -19 28 0 8 -70 114 -114 171 -48 61 -186 204 -231 237 -22 16 -87 73 -144
126 -127 118 -134 124 -153 137 -52 35 -108 80 -108 87 0 16 -108 57 -220 83
-63 15 -124 30 -135 35 -11 4 -67 16 -125 25 -178 29 -277 61 -456 147 -56 26
-109 48 -117 48 -8 0 -17 4 -19 8 -1 5 -59 27 -128 50 -255 85 -335 114 -344
123 -6 5 -16 9 -24 9 -14 0 -43 12 -147 61 -150 70 -218 99 -232 99 -14 0
-152 68 -163 81 -3 3 -21 11 -40 19 -19 7 -46 22 -59 32 -13 10 -30 18 -37 18
-7 0 -28 9 -46 20 -18 11 -41 20 -50 20 -10 0 -18 3 -18 8 0 8 -59 44 -79 48
-17 3 -144 65 -151 73 -3 3 -23 19 -45 36 -22 16 -49 38 -60 48 -11 11 -44 33
-73 49 -30 17 -56 37 -59 45 -10 25 26 354 40 377 8 11 66 74 128 140 63 65
118 126 123 135 12 22 165 234 199 276 5 5 38 55 73 110 126 192 285 550 309
695 4 24 11 51 16 60 9 17 45 249 55 359 6 66 16 91 88 235 98 195 109 225
156 406 7 25 16 54 20 65 4 11 16 56 26 100 20 84 25 299 10 363 -7 27 -6 31
7 26 29 -11 29 18 1 48 -19 20 -23 29 -12 25 10 -3 20 -1 24 5 4 7 9 6 15 -3
6 -10 10 -7 17 11 8 19 5 33 -10 58 -11 18 -19 34 -17 36 2 1 17 7 33 14 22
10 26 15 17 26 -8 10 -9 16 -1 21 5 3 13 -1 16 -9 8 -20 24 -21 24 -1 0 10 11
15 35 15 57 0 85 48 76 128 -2 18 -31 15 -31 -4 0 -8 -5 -12 -10 -9 -8 5 -7
11 1 21 7 8 11 43 10 84 -1 58 1 70 15 70 9 0 14 7 12 18 -3 12 -13 17 -35 16
-30 -2 -30 -1 -22 35 12 49 12 50 -11 44 -23 -6 -24 -1 -8 44 11 31 48 48 48
22 0 -6 8 -9 18 -7 12 2 17 13 17 38 0 29 4 36 23 38 18 3 22 10 22 43 0 39 0
39 -40 39 -38 0 -40 -1 -40 -32 0 -17 -3 -28 -7 -24 -5 4 -8 13 -8 18 0 6 -6
13 -14 16 -8 3 -11 0 -7 -7 4 -6 2 -11 -3 -11 -6 0 -11 9 -11 20 0 11 7 20 15
20 19 0 20 16 1 23 -9 4 -17 29 -21 72 -5 39 -13 69 -20 71 -22 9 -24 43 -5
66 17 22 17 24 -2 51 -15 21 -18 31 -9 40 13 13 15 77 2 77 -6 0 -7 15 -4 33
3 23 0 37 -11 46 -14 11 -13 15 4 33 14 15 17 26 10 38 -6 11 -5 21 1 27 8 8
5 13 -10 18 -24 7 -28 25 -6 25 7 0 18 6 22 14 4 8 24 16 43 19 29 3 28 4 -7
3 -29 -1 -43 3 -43 11 0 7 -4 13 -8 13 -4 0 -8 10 -9 22 -1 11 -8 25 -15 29
-9 6 -8 9 4 14 10 4 22 4 28 0 5 -3 10 1 10 9 0 13 14 16 80 16 64 0 80 -3 80
-15 0 -11 11 -15 40 -15 29 0 40 4 40 15 0 8 6 15 14 15 8 0 16 6 18 13 3 6
27 17 54 24 35 8 41 11 22 12 -24 1 -28 5 -28 30 0 25 -4 30 -27 33 -16 2 -27
8 -26 15 1 6 -4 14 -12 17 -10 4 -15 -1 -15 -14 0 -11 -4 -20 -10 -20 -5 0 -9
16 -8 35 1 19 5 35 10 35 4 0 8 11 8 24 0 24 28 36 88 36 23 0 24 1 10 18 -9
9 -16 36 -16 60 -1 59 -9 79 -35 86 -22 6 -22 6 6 31 15 14 27 35 27 45 0 11
7 20 16 20 10 0 12 -4 7 -12 -20 -32 -5 -58 35 -58 15 0 22 -6 22 -18 0 -11
11 -24 25 -30 32 -15 32 -32 0 -32 -16 0 -25 -6 -25 -15 0 -9 9 -15 23 -15 45
0 99 -21 104 -41 3 -10 12 -19 19 -19 8 0 14 -7 14 -15 0 -8 7 -15 15 -15 8 0
19 -9 25 -20 11 -21 40 -28 40 -10 0 6 33 10 80 10 82 0 110 -16 43 -23 -21
-2 -11 -4 22 -3 l60 1 -1 -37 c-1 -31 2 -38 17 -38 12 0 19 7 19 19 0 15 10
21 40 26 26 4 40 12 40 22 0 10 -6 14 -19 10 -44 -11 -61 34 -23 65 12 10 16
10 19 1 8 -22 23 -14 23 12 0 23 4 25 40 25 36 0 40 -2 40 -25 0 -21 5 -25 29
-25 16 0 44 -2 62 -5 19 -3 28 -3 22 1 -26 12 15 34 64 35 26 0 71 4 98 9 l50
7 -42 2 -43 1 0 55 0 55 40 0 c36 0 40 -2 40 -25 0 -18 5 -25 20 -25 16 0 18
6 15 32 -2 18 -11 38 -20 44 -24 18 -18 24 25 24 29 0 40 4 40 15 0 13 20 15
120 15 l120 0 0 -25 c0 -30 25 -34 40 -5 6 11 17 20 25 20 7 0 15 10 17 23 3
21 5 20 37 -14 33 -36 34 -36 62 -20 16 9 29 22 29 29 0 7 14 15 30 19 36 7
48 22 29 34 -12 8 -12 11 1 19 13 8 12 11 -7 16 -12 3 -24 17 -27 30 -4 13
-13 24 -21 24 -21 0 -19 49 2 79 l16 24 8 -21 c6 -17 17 -22 44 -22 32 0 35 3
35 29 0 43 24 56 99 56 60 0 66 2 63 20 -2 15 6 24 28 32 16 6 30 18 30 27 0
9 4 16 9 16 5 0 11 9 13 21 3 19 6 18 41 -16 26 -25 35 -41 29 -48 -5 -7 -7
-27 -5 -44 5 -31 7 -33 49 -33 31 0 44 -4 44 -14 0 -8 -6 -17 -12 -19 -7 -3 1
-3 17 -1 56 10 121 -34 84 -56 -7 -5 -10 -13 -5 -17 5 -4 11 -2 13 5 8 20 23
14 35 -15 12 -28 85 -103 100 -103 4 0 8 11 8 25 0 18 4 23 15 19 11 -5 12
-10 5 -18 -6 -9 -6 -16 2 -24 12 -12 4 -18 -37 -24 -14 -2 -19 -11 -20 -36 0
-21 -7 -37 -18 -43 -10 -6 -15 -14 -12 -20 4 -5 1 -9 -4 -9 -7 0 -7 -7 1 -21
10 -17 10 -23 1 -26 -7 -3 -13 -11 -13 -19 0 -11 19 -14 92 -14 72 0 89 -3 80
-12 -15 -15 -16 -42 -2 -33 6 4 24 10 40 15 26 7 30 6 30 -11 0 -14 -7 -19
-25 -19 -38 0 -92 -25 -105 -49 -13 -24 -30 -28 -30 -6 0 12 -15 15 -79 15
-54 0 -81 -4 -84 -12 -3 -9 -12 -6 -29 10 -13 12 -29 22 -36 22 -13 0 -25 56
-20 91 2 13 9 23 15 22 16 -3 22 57 6 72 -7 8 -13 20 -13 28 0 8 -11 18 -25
21 -14 4 -25 13 -25 21 0 8 -4 15 -9 15 -10 0 -23 35 -25 65 -1 16 -9 21 -38
23 -26 2 -38 -1 -38 -10 0 -7 -18 -21 -40 -31 -22 -10 -40 -24 -40 -32 0 -7
-7 -18 -16 -26 -14 -11 -14 -13 1 -22 10 -5 16 -20 15 -35 -1 -15 -2 -49 -1
-76 1 -43 3 -47 17 -35 14 11 19 9 35 -11 10 -14 19 -31 19 -38 0 -7 3 -11 8
-9 4 3 5 -20 3 -51 -2 -35 -8 -60 -17 -65 -8 -4 -14 -17 -14 -27 0 -10 -4 -22
-10 -25 -5 -3 -10 -21 -10 -39 0 -24 6 -36 23 -43 21 -11 21 -11 2 -18 -11 -3
-28 -11 -37 -16 -12 -6 -18 -6 -18 1 0 5 -23 10 -52 10 -40 0 -57 -5 -75 -22
-20 -19 -25 -20 -33 -8 -8 13 -14 13 -42 1 -18 -7 -53 -17 -78 -23 -26 -6 -58
-23 -76 -40 -28 -26 -32 -39 -38 -100 l-7 -70 -76 7 c-74 7 -112 26 -114 58 0
6 -9 26 -20 42 -11 17 -22 38 -25 47 -3 10 -14 20 -23 23 -22 8 -61 71 -61
101 0 21 -4 24 -40 24 -22 0 -40 4 -40 10 0 19 -28 -2 -34 -26 -9 -33 -66 -35
-81 -2 -22 49 -68 49 -90 0 -5 -12 -18 -22 -28 -22 -23 0 -58 -19 -74 -39 -11
-14 -12 -14 -13 2 0 15 -7 18 -47 15 l-48 -3 0 -50 0 -50 48 -3 c35 -2 47 0
47 11 0 8 9 22 21 33 11 10 19 14 18 9 -2 -6 2 -20 9 -31 6 -12 9 -24 6 -27
-3 -2 -7 -19 -9 -37 -3 -25 0 -33 15 -37 20 -5 28 -23 11 -23 -23 0 -54 -63
-53 -108 0 -39 5 -50 29 -69 15 -13 24 -23 20 -23 -5 0 -2 -7 7 -15 8 -8 18
-15 23 -15 4 0 19 -14 32 -31 22 -28 26 -29 32 -13 7 18 7 18 15 0 4 -10 2
-27 -4 -37 -10 -15 -8 -20 9 -29 15 -9 24 -8 36 2 9 7 23 13 32 13 9 0 17 10
19 23 2 13 14 28 28 34 13 6 24 17 24 25 0 9 13 13 40 13 30 0 40 -4 40 -16 0
-9 5 -14 11 -12 6 2 10 8 9 13 -2 14 30 24 88 24 37 1 52 -3 51 -11 -1 -7 -1
-34 0 -59 1 -39 5 -48 26 -57 15 -7 25 -20 25 -32 0 -11 7 -23 15 -26 8 -4 15
-17 15 -30 0 -17 6 -24 20 -24 11 0 23 -7 26 -15 4 -8 12 -15 20 -15 8 0 14
-7 14 -15 0 -11 11 -15 40 -15 22 0 40 -4 40 -10 0 -5 -17 -10 -37 -10 -30 0
-44 -7 -76 -42 -29 -31 -41 -38 -47 -28 -12 19 -40 4 -40 -22 0 -13 -3 -43 -6
-67 -5 -31 -2 -46 7 -52 11 -6 10 -12 -5 -27 -11 -13 -16 -32 -14 -54 4 -43
32 -46 36 -3 6 67 17 75 104 75 45 0 78 -4 78 -10 0 -5 -16 -10 -35 -10 -19 0
-35 -4 -35 -10 0 -5 3 -10 8 -10 12 0 2 -164 -11 -172 -8 -5 -6 -8 6 -8 19 0
24 -20 5 -20 -23 -1 25 -30 48 -30 37 0 39 -20 2 -21 l-33 -1 30 -7 c27 -6 50
-41 27 -41 -6 0 -12 -7 -16 -15 -4 -12 5 -15 54 -15 47 0 60 3 60 15 0 9 9 15
25 15 14 0 25 5 25 10 0 6 18 10 40 10 35 0 40 3 40 24 0 16 7 25 23 29 12 2
30 8 40 12 12 5 17 3 17 -8 0 -9 -8 -18 -17 -20 -17 -4 -17 -5 0 -6 10 -1 17
-9 17 -21 0 -17 7 -20 40 -20 33 0 40 3 40 20 0 17 7 20 40 20 37 0 40 -2 40
-29 0 -24 4 -28 19 -24 17 4 20 21 12 76 -1 4 -8 7 -16 7 -10 0 -14 10 -13 35
1 35 1 35 49 35 42 0 48 3 51 23 2 12 10 22 18 22 8 0 16 -10 18 -22 2 -15 10
-23 23 -23 21 0 26 -16 7 -23 -8 -3 -6 -6 5 -6 19 -1 24 -21 5 -21 -20 -1 24
-30 44 -30 16 0 17 -7 13 -57 -5 -55 -4 -57 9 -31 8 15 16 42 18 60 2 25 9 34
28 38 17 4 21 8 12 14 -17 10 -15 26 3 26 8 0 15 -5 15 -11 0 -8 17 -9 55 -4
33 4 55 3 55 -3 0 -12 -34 -22 -76 -22 -16 0 -35 -5 -42 -12 -15 -15 -16 -64
-2 -73 6 -4 10 8 10 29 0 20 5 36 11 36 7 0 10 -18 7 -50 -1 -28 2 -52 7 -54
6 -3 4 -9 -4 -14 -11 -8 -10 -12 7 -21 14 -8 19 -18 17 -33 -6 -31 3 -58 21
-58 8 0 14 -4 14 -10 0 -5 18 -10 40 -10 22 0 40 5 40 10 0 6 17 10 38 10 l37
0 13 66 c7 36 10 69 7 74 -3 4 1 11 7 13 10 4 10 8 2 14 -7 4 -14 17 -17 28
-4 18 -5 18 -6 -2 -1 -30 -17 -29 -37 2 -9 14 -23 25 -30 25 -21 0 -17 21 6
27 15 4 19 13 17 42 l-2 36 -57 3 c-36 2 -58 -1 -58 -8 0 -5 5 -10 11 -10 5 0
7 -4 4 -10 -7 -11 -74 -14 -99 -4 -12 5 -16 21 -16 64 0 33 4 62 10 65 6 3 10
19 10 36 0 27 2 29 40 29 l40 0 0 -40 0 -40 40 0 c39 0 40 1 40 36 0 27 5 37
19 41 14 3 18 13 17 41 -1 31 3 38 22 40 15 2 22 -2 22 -12 0 -12 10 -16 40
-16 36 0 40 3 40 25 0 23 4 25 40 25 36 0 40 2 40 26 0 17 6 28 19 31 14 3 18
13 17 36 -1 24 4 34 21 42 12 5 24 16 26 25 2 9 9 1 19 -20 18 -42 49 -71 55
-52 7 19 33 14 33 -6 0 -10 3 -21 6 -25 3 -3 6 -38 7 -77 0 -56 -3 -74 -15
-81 -11 -6 -14 -19 -11 -44 4 -32 2 -35 -20 -35 -19 0 -26 -6 -30 -30 -11 -51
-2 -59 59 -53 l54 6 0 -35 c0 -19 -5 -39 -11 -45 -6 -6 -11 -27 -12 -47 -1
-33 -4 -36 -29 -36 -18 0 -28 -5 -28 -15 0 -11 -11 -15 -39 -15 -34 0 -39 3
-47 33 -13 43 -50 50 -64 12 -14 -37 -13 -102 3 -108 9 -4 8 -8 -3 -16 -13 -9
-13 -11 3 -11 19 0 24 -20 5 -20 -20 -1 24 -30 44 -30 14 0 18 -8 18 -40 0
-23 5 -40 11 -40 7 0 9 -10 5 -25 -4 -16 -2 -25 5 -25 7 0 10 -3 6 -6 -3 -3
-45 -8 -94 -10 -48 -2 -89 -8 -91 -14 -2 -5 -24 -10 -48 -10 -38 0 -46 4 -54
24 -12 33 -39 46 -94 46 -44 0 -46 -1 -46 -30 0 -22 -5 -30 -18 -30 -25 0 -26
-67 0 -73 44 -12 9 -97 -39 -97 -19 0 -21 -6 -21 -75 -1 -71 0 -74 19 -65 10
6 19 15 19 20 0 11 111 2 120 -9 3 -3 14 -11 25 -17 15 -8 19 -19 17 -44 -2
-19 2 -36 9 -41 10 -6 10 -10 0 -23 -7 -8 -10 -20 -7 -25 4 -6 -2 -15 -13 -20
-16 -9 -19 -19 -15 -48 3 -21 7 -45 9 -54 7 -22 48 -39 95 -39 38 0 40 2 40
30 0 28 2 30 40 30 38 0 40 -2 40 -30 0 -37 7 -37 48 0 28 26 32 36 32 80 l0
50 40 0 c22 0 40 -4 40 -10 0 -5 -16 -10 -35 -10 -19 0 -35 -4 -35 -10 0 -5 4
-10 9 -10 4 0 7 -10 5 -22 -3 -13 4 -33 15 -45 17 -20 30 -23 121 -25 94 -3
104 -5 118 -26 8 -12 21 -22 28 -22 19 0 18 -4 -16 -40 -16 -18 -30 -41 -30
-51 0 -10 -4 -19 -10 -19 -5 0 -10 7 -10 15 0 9 -9 15 -24 15 -22 0 -24 4 -22
35 3 28 0 35 -14 35 -13 0 -19 -11 -22 -43 -5 -44 -32 -87 -55 -87 -6 0 -24
-5 -39 -10 -26 -10 -26 -11 -8 -25 10 -8 26 -14 34 -15 13 0 13 1 0 10 -12 7
-12 12 -3 21 10 10 18 10 38 1 14 -6 25 -16 25 -22 0 -6 34 -10 85 -10 l85 0
0 -65 0 -65 40 0 c39 0 40 1 40 35 0 34 1 35 40 35 43 0 55 -16 18 -23 l-23
-4 23 -2 c20 -1 23 -6 22 -33 -4 -69 0 -98 13 -98 10 0 13 -13 10 -47 -2 -27
-3 -60 -3 -75 0 -16 -4 -28 -10 -28 -6 0 -10 25 -10 56 l0 55 -37 -3 c-33 -3
-38 -7 -41 -30 -3 -25 -7 -28 -43 -28 l-39 0 0 55 0 55 -55 0 c-30 0 -55 -3
-56 -7 0 -5 -2 -17 -4 -28 -7 -35 5 -55 32 -55 18 0 24 -4 20 -14 -3 -8 -1
-17 6 -20 9 -3 8 -7 -2 -14 -11 -8 -10 -12 7 -21 14 -8 19 -18 17 -33 -6 -31
3 -58 21 -58 8 0 14 -10 14 -25 0 -25 -1 -25 -80 -25 -52 0 -80 -4 -80 -11 0
-8 24 -9 80 -4 56 5 80 4 80 -4 0 -19 77 -13 86 7 4 9 6 20 6 25 -1 4 9 12 23
17 24 9 31 30 27 83 -1 9 3 17 8 17 6 0 10 -15 10 -34 0 -27 4 -35 20 -38 12
-2 20 -7 20 -12 -1 -5 4 -13 12 -18 10 -7 10 -11 0 -15 -15 -6 -16 -63 0 -63
6 0 8 -3 5 -7 -4 -3 -2 -12 4 -19 7 -9 1 -15 -25 -25 -20 -7 -36 -17 -36 -22
0 -13 74 0 78 13 2 5 22 10 45 9 36 0 39 -2 19 -10 -21 -8 -23 -15 -22 -66 2
-72 8 -93 24 -93 19 0 18 -61 -1 -82 -15 -17 -13 -18 35 -18 l52 0 0 560 0
560 -35 0 c-20 0 -35 5 -35 11 0 7 -8 18 -17 25 -13 9 -14 13 -4 14 8 0 11 6
7 15 -3 9 0 24 6 35 9 14 16 16 31 9 41 -23 47 -7 47 121 0 76 -4 120 -10 120
-6 0 -13 -7 -16 -15 -4 -8 -14 -15 -24 -15 -10 0 -20 -6 -23 -12 -5 -17 -37 8
-37 28 0 8 -9 14 -20 14 -11 0 -20 5 -20 11 0 11 -60 69 -72 69 -5 0 -8 7 -8
15 0 11 -11 15 -40 15 -22 0 -40 5 -40 10 0 6 -18 10 -40 10 -22 0 -40 -4 -40
-10 0 -5 -21 -10 -46 -10 -65 0 -90 31 -64 81 8 15 22 19 60 19 47 0 50 -2 50
-25 0 -22 4 -25 40 -25 39 0 40 1 40 35 0 27 4 35 18 35 20 0 64 29 45 30 -20
0 -15 20 4 20 15 0 14 2 -3 14 -18 14 -18 15 -1 21 13 6 17 19 17 56 l0 49 80
0 80 0 0 -50 c0 -43 3 -50 19 -50 16 0 19 6 16 36 -2 29 2 38 16 41 19 5 19
69 19 2389 l0 2384 -5995 0 -5995 0 0 -1985z m7520 -55 c0 -11 -7 -20 -15 -20
-17 0 -18 2 -9 24 9 23 24 20 24 -4z m457 -226 c12 -3 25 -15 29 -27 3 -11 15
-30 26 -41 19 -21 19 -21 -1 -37 -19 -15 -19 -16 10 -33 16 -10 27 -22 24 -27
-4 -5 -1 -9 4 -9 6 0 11 14 11 32 0 17 3 28 7 24 8 -8 9 -12 11 -57 1 -14 11
-34 21 -46 16 -17 28 -19 70 -15 42 4 51 2 51 -11 0 -9 -8 -18 -18 -21 -12 -4
-17 -17 -18 -41 -1 -32 2 -35 26 -35 35 0 42 -8 29 -33 -8 -15 -8 -22 2 -28
11 -6 10 -9 -4 -15 -11 -4 -17 -17 -17 -35 0 -24 -4 -29 -24 -29 -39 0 -56 11
-56 35 0 13 -6 25 -12 27 -8 3 -12 19 -10 41 3 31 0 37 -16 37 -16 0 -20 -7
-20 -35 0 -20 -6 -42 -12 -50 -10 -12 -9 -15 5 -15 16 0 16 -2 1 -25 -16 -24
-16 -24 22 -31 20 -4 48 -8 62 -8 21 -1 25 -6 25 -34 1 -22 -5 -37 -17 -43
-10 -6 -16 -14 -13 -20 4 -5 1 -9 -4 -9 -8 0 -7 -7 1 -20 7 -10 8 -23 4 -27
-5 -4 -11 -2 -13 5 -6 14 -83 17 -83 2 0 -5 18 -10 40 -10 29 0 40 -4 40 -15
0 -11 11 -15 40 -15 36 0 40 -2 40 -25 0 -22 4 -25 39 -25 38 0 39 0 39 -40 1
-27 -4 -40 -13 -40 -16 0 -23 -18 -19 -52 2 -24 -1 -28 -22 -28 -14 0 -24 6
-24 14 0 8 -10 22 -21 30 -16 11 -22 26 -23 60 -1 37 -5 46 -18 46 -10 0 -18
5 -18 10 0 6 -18 10 -40 10 -35 0 -40 -3 -40 -22 -1 -21 -2 -21 -11 -5 -13 22
-31 22 -27 1 2 -10 -3 -19 -9 -21 -7 -3 -13 1 -13 7 0 6 -7 18 -15 26 -8 9
-15 23 -15 32 0 14 2 14 9 3 11 -17 41 -7 41 14 0 8 5 15 11 15 5 0 8 -4 5 -9
-3 -5 1 -14 9 -21 13 -10 15 -9 14 11 -2 37 -13 70 -24 70 -5 -1 -10 -6 -10
-13 0 -6 -5 -13 -10 -15 -6 -2 -16 23 -24 54 -8 35 -23 69 -39 86 l-26 27 27
0 c15 0 27 4 27 9 0 13 -57 34 -75 27 -10 -3 -15 -1 -14 7 4 24 -12 45 -32 40
-23 -6 -24 -1 -4 37 15 29 35 40 35 20 0 -5 9 -2 19 7 28 24 17 33 -42 35 -50
1 -51 2 -9 5 23 2 42 9 42 14 0 5 -10 9 -22 8 -46 -4 -62 4 -23 11 l40 7 -40
3 -40 3 45 7 c44 7 43 7 -20 9 -70 1 -108 15 -77 27 9 3 26 4 37 1 11 -3 20
-2 20 3 0 10 -67 23 -80 15 -21 -13 -31 7 -15 31 14 23 14 24 -10 30 -29 7
-28 29 1 29 28 0 58 20 50 34 -4 6 -14 11 -22 11 -8 0 -12 -4 -9 -10 8 -13
-55 -13 -89 0 -31 11 -35 35 -5 27 17 -5 18 -3 8 9 -11 13 -9 14 14 9 20 -5
28 -3 33 9 7 17 44 22 44 6 0 -13 43 -13 57 1 8 8 17 8 33 -1 25 -13 50 1 50
30 0 27 11 30 33 9 12 -11 32 -22 44 -25z m-300 10 c-3 -3 -12 -4 -19 -1 -8 3
-5 6 6 6 11 1 17 -2 13 -5z m-4377 -18 c0 -3 -4 -8 -10 -11 -5 -3 -10 -1 -10
4 0 6 5 11 10 11 6 0 10 -2 10 -4z m74 -11 c-4 -8 -8 -15 -10 -15 -2 0 -4 7
-4 15 0 8 4 15 10 15 5 0 7 -7 4 -15z m-148 -44 c-2 -23 2 -31 21 -40 l23 -11
-21 -24 c-12 -14 -28 -22 -35 -19 -8 3 -14 0 -14 -6 0 -6 6 -11 13 -11 7 0 23
-9 35 -20 26 -24 19 -52 -12 -48 -19 3 -21 -1 -18 -43 2 -45 0 -48 -29 -58
-39 -14 -49 -14 -49 -1 0 6 7 10 16 10 12 0 14 4 7 13 -6 6 -9 20 -7 31 1 11
-5 20 -18 24 -13 3 -18 11 -15 23 3 11 1 17 -4 13 -5 -3 -9 -1 -9 4 0 5 -9 12
-20 15 -28 7 -25 24 7 32 20 5 23 9 13 15 -17 11 -20 60 -3 60 7 0 13 7 13 15
0 11 11 15 40 15 33 0 40 3 40 20 0 11 7 20 15 20 10 0 14 -9 11 -29z m109 -3
c-1 -18 -6 -33 -11 -33 -5 0 -10 15 -12 33 -2 23 1 32 11 32 10 0 14 -10 12
-32z m-35 -52 c0 -3 -4 -8 -10 -11 -5 -3 -10 -1 -10 4 0 6 5 11 10 11 6 0 10
-2 10 -4z m4415 -36 c3 -5 2 -10 -4 -10 -5 0 -13 5 -16 10 -3 6 -2 10 4 10 5
0 13 -4 16 -10z m-4420 -50 c3 -5 1 -10 -4 -10 -6 0 -11 5 -11 10 0 6 2 10 4
10 3 0 8 -4 11 -10z m2305 -10 c0 -5 -7 -10 -15 -10 -8 0 -15 5 -15 10 0 6 7
10 15 10 8 0 15 -4 15 -10z m-192 -17 c-10 -2 -26 -2 -35 0 -10 3 -2 5 17 5
19 0 27 -2 18 -5z m772 -33 c0 -5 -4 -10 -10 -10 -5 0 -10 5 -10 10 0 6 5 10
10 10 6 0 10 -4 10 -10z m4480 -14 c0 -3 -4 -8 -10 -11 -5 -3 -10 -1 -10 4 0
6 5 11 10 11 6 0 10 -2 10 -4z m-4730 -46 c-8 -5 -22 -10 -30 -10 -13 0 -13 1
0 10 8 5 22 10 30 10 13 0 13 -1 0 -10z m307 -37 c-3 -3 -11 -2 -17 2 -9 6 -9
10 1 16 14 8 27 -7 16 -18z m4643 -243 l0 -50 -40 0 c-37 0 -40 2 -40 26 0 30
36 71 63 73 14 1 17 -8 17 -49z m-1890 -27 c24 -21 26 -33 4 -33 -10 0 -14 -6
-10 -15 3 -8 2 -15 -3 -15 -4 0 -6 -11 -3 -25 2 -15 0 -25 -7 -25 -6 0 -11 7
-11 15 0 11 -11 15 -40 15 -38 0 -40 2 -40 30 0 28 2 30 40 30 33 0 40 3 40
20 0 24 4 25 30 3z m-2415 -2 c3 -5 1 -12 -5 -16 -5 -3 -10 1 -10 9 0 18 6 21
15 7z m1825 -11 c0 -15 -7 -20 -25 -20 -29 0 -33 15 -7 29 25 15 32 13 32 -9z
m-1763 -32 c-3 -8 -6 -5 -6 6 -1 11 2 17 5 13 3 -3 4 -12 1 -19z m4263 2 c0
-5 -4 -10 -10 -10 -5 0 -10 5 -10 10 0 6 5 10 10 10 6 0 10 -4 10 -10z m-8123
-17 c-4 -3 1 -15 10 -25 13 -14 14 -21 5 -30 -7 -7 -12 -27 -12 -45 0 -26 -4
-33 -19 -33 -13 0 -20 9 -23 32 -5 34 19 108 35 108 6 0 7 -3 4 -7z m-1778
-32 c15 -10 4 -38 -23 -61 -9 -7 -16 -23 -16 -36 0 -13 -4 -24 -9 -24 -5 0
-24 -2 -42 -5 -28 -5 -30 -4 -12 4 19 9 22 16 18 51 -3 36 -1 42 21 52 13 6
24 15 24 20 0 10 21 10 39 -1z m301 -5 c0 -3 -4 -8 -10 -11 -5 -3 -10 -1 -10
4 0 6 5 11 10 11 6 0 10 -2 10 -4z m-420 -58 c0 -25 -3 -29 -10 -18 -13 20
-13 50 0 50 6 0 10 -15 10 -32z m5805 -48 c4 -6 -5 -10 -19 -10 -14 0 -26 5
-26 10 0 6 9 10 19 10 11 0 23 -4 26 -10z m35 -25 c0 -8 -7 -15 -15 -15 -9 0
-12 6 -9 15 4 8 10 15 15 15 5 0 9 -7 9 -15z m-5920 -45 c0 -48 -1 -50 -20
-38 -22 14 -26 39 -10 69 18 33 30 21 30 -31z m7280 40 c0 -5 -5 -10 -11 -10
-5 0 -7 5 -4 10 3 6 8 10 11 10 2 0 4 -4 4 -10z m-4997 -37 c-7 -2 -19 -2 -25
0 -7 3 -2 5 12 5 14 0 19 -2 13 -5z m-2763 -288 c0 -19 -5 -35 -11 -35 -6 0
-9 10 -8 23 2 12 0 28 -4 35 -5 7 -3 12 7 12 12 0 16 -10 16 -35z m9060 -295
c0 -5 -4 -10 -10 -10 -5 0 -10 5 -10 10 0 6 5 10 10 10 6 0 10 -4 10 -10z
m1390 -25 c0 -19 -4 -35 -10 -35 -5 0 -10 16 -10 35 0 19 5 35 10 35 6 0 10
-16 10 -35z m-286 -16 c-3 -6 0 -15 7 -20 12 -8 12 -11 -1 -19 -11 -7 -6 -10
23 -10 23 0 37 5 38 13 0 10 2 10 6 0 2 -8 22 -13 44 -13 35 0 39 3 39 25 0
23 4 25 40 25 29 0 40 -4 40 -15 0 -8 7 -15 15 -15 15 0 20 -16 17 -52 -1 -10
3 -18 9 -18 6 0 9 -7 5 -15 -3 -8 -1 -15 4 -15 6 0 10 -9 10 -20 0 -11 -4 -20
-10 -20 -13 0 -9 -70 4 -70 6 0 3 -5 -6 -11 -10 -5 -18 -15 -18 -22 0 -7 -18
-31 -39 -54 -86 -91 -111 -79 -120 60 -1 4 -8 7 -17 7 -12 0 -15 7 -12 24 5
23 2 25 -46 28 -72 6 -70 8 -101 -77 -5 -13 -9 -15 -12 -7 -3 6 -14 12 -26 12
-24 0 -57 27 -57 47 0 7 -5 22 -12 32 -14 23 -4 53 15 45 8 -3 28 6 44 20 30
25 31 25 36 6 5 -18 14 -20 76 -20 l71 0 0 40 c0 39 -1 40 -35 40 -28 0 -35
-4 -35 -20 0 -11 -7 -20 -15 -20 -8 0 -15 8 -15 18 0 10 -5 23 -12 30 -9 9 -9
12 0 12 6 0 9 7 6 15 -4 8 -1 22 6 30 14 17 45 21 34 4z m-3579 -191 c6 -4 2
-8 -7 -8 -10 0 -18 7 -18 17 0 9 3 12 8 7 4 -5 12 -12 17 -16z m4240 3 c3 -5
1 -12 -3 -15 -5 -3 -7 -17 -4 -31 2 -15 0 -25 -7 -25 -6 0 -11 -11 -11 -25 0
-22 -4 -25 -40 -25 -38 0 -40 1 -40 31 0 47 86 120 105 90z m345 -36 c0 -19
-4 -35 -10 -35 -5 0 -10 16 -10 35 0 19 5 35 10 35 6 0 10 -16 10 -35z m-1395
-45 c3 -5 1 -10 -4 -10 -6 0 -11 5 -11 10 0 6 2 10 4 10 3 0 8 -4 11 -10z
m1360 -10 c3 -5 1 -10 -4 -10 -6 0 -11 5 -11 10 0 6 2 10 4 10 3 0 8 -4 11
-10z m-4366 -37 c18 4 31 2 31 -3 0 -6 -9 -10 -19 -10 -11 0 -23 -4 -26 -10
-13 -21 -35 -10 -35 18 0 19 3 23 9 13 6 -9 19 -12 40 -8z m3391 -10 c0 -20
-3 -24 -11 -16 -7 7 -9 19 -6 27 10 24 17 19 17 -11z m-2240 -18 c0 -9 -9 -15
-22 -15 -21 0 -21 0 -2 15 24 18 24 18 24 0z m2607 -11 c15 -15 6 -24 -23 -24
-22 0 -50 31 -38 43 8 7 47 -5 61 -19z m43 -29 c0 -32 -2 -35 -30 -35 -36 0
-39 16 -5 32 14 6 25 17 25 25 0 7 2 13 5 13 3 0 5 -16 5 -35z m93 16 c5 -20
-9 -51 -23 -51 -6 0 -10 16 -10 35 0 38 24 50 33 16z m-3893 -1 c0 -5 -2 -10
-4 -10 -3 0 -8 5 -11 10 -3 6 -1 10 4 10 6 0 11 -4 11 -10z m-4020 -20 c0 -5
-4 -10 -10 -10 -5 0 -10 5 -10 10 0 6 5 10 10 10 6 0 10 -4 10 -10z m7030
-254 c0 -3 -4 -8 -10 -11 -5 -3 -10 -1 -10 4 0 6 5 11 10 11 6 0 10 -2 10 -4z
m-1920 -116 c0 -5 -4 -10 -10 -10 -5 0 -10 5 -10 10 0 6 5 10 10 10 6 0 10 -4
10 -10z m-1220 -10 c0 -5 -7 -10 -15 -10 -8 0 -15 5 -15 10 0 6 7 10 15 10 8
0 15 -4 15 -10z m1250 -30 c0 -5 -4 -10 -10 -10 -5 0 -10 5 -10 10 0 6 5 10
10 10 6 0 10 -4 10 -10z m-50 -52 c0 -18 -2 -20 -9 -8 -6 8 -7 18 -5 22 9 14
14 9 14 -14z m3778 -17 c2 -25 -2 -31 -17 -31 -25 0 -36 16 -16 24 8 3 15 15
15 26 0 32 15 16 18 -19z m-3883 -161 c3 -5 1 -10 -4 -10 -6 0 -11 5 -11 10 0
6 2 10 4 10 3 0 8 -4 11 -10z m-1315 -89 c0 -20 -13 -41 -25 -41 -18 0 -28 17
-21 35 6 16 46 21 46 6z m60 -6 c0 -8 -7 -15 -15 -15 -16 0 -20 12 -8 23 11
12 23 8 23 -8z m195 -53 c4 -10 -1 -22 -11 -29 -33 -24 -41 -14 -28 34 7 24
29 21 39 -5z m-366 -13 c12 -27 12 -33 0 -40 -36 -23 -66 5 -48 45 16 34 31
33 48 -5z m4811 -134 c0 -8 -4 -15 -9 -15 -5 0 -11 7 -15 15 -3 9 0 15 9 15 8
0 15 -7 15 -15z m50 -20 c0 -19 -4 -35 -10 -35 -5 0 -10 16 -10 35 0 19 5 35
10 35 6 0 10 -16 10 -35z m-53 -32 c-3 -3 -11 -2 -17 2 -9 6 -9 10 1 16 14 8
27 -7 16 -18z m-77 7 c0 -5 -18 -10 -40 -10 -22 0 -40 5 -40 10 0 6 18 10 40
10 22 0 40 -4 40 -10z m-7580 -425 c0 -8 -4 -15 -10 -15 -5 0 -10 7 -10 15 0
8 5 15 10 15 6 0 10 -7 10 -15z m8110 -10 c0 -8 -4 -15 -10 -15 -5 0 -10 7
-10 15 0 8 5 15 10 15 6 0 10 -7 10 -15z m0 -46 c0 -5 -4 -9 -10 -9 -5 0 -10
7 -10 16 0 8 5 12 10 9 6 -3 10 -10 10 -16z m-350 -75 c0 -8 -4 -14 -10 -14
-5 0 -10 9 -10 21 0 11 5 17 10 14 6 -3 10 -13 10 -21z m300 -109 c0 -11 11
-15 40 -15 22 0 40 5 40 10 0 6 6 10 14 10 10 0 13 -8 10 -27 -12 -74 -11 -73
-62 -71 l-47 1 45 6 c45 7 44 7 -22 12 -73 5 -84 10 -72 31 13 21 13 38 1 38
-19 0 16 20 36 20 9 0 17 -7 17 -15z m-5403 -252 c-11 -10 13 -32 29 -26 10 3
14 -2 14 -19 0 -13 5 -29 12 -36 9 -9 6 -17 -12 -37 -26 -28 -50 -33 -50 -10
0 9 -13 18 -31 22 -20 4 -27 9 -20 16 5 5 7 16 4 23 -3 8 -1 14 5 14 5 0 15
14 22 30 7 17 17 30 23 30 6 0 7 -3 4 -7z m5480 -269 c-3 -3 -12 -4 -19 -1 -8
3 -5 6 6 6 11 1 17 -2 13 -5z m-5350 -121 c-3 -10 -5 -4 -5 12 0 17 2 24 5 18
2 -7 2 -21 0 -30z m-1407 -304 c0 -5 -7 -9 -15 -9 -15 0 -20 12 -9 23 8 8 24
-1 24 -14z m1959 -46 c-1 -33 -2 -35 -8 -13 -4 14 -6 31 -3 38 8 22 12 13 11
-25z m-1391 -4 c16 8 180 -11 222 -26 8 -3 64 -5 123 -3 74 1 113 -2 123 -11
11 -9 18 -9 26 -1 7 7 31 12 54 12 44 0 74 -19 74 -47 0 -15 2 -15 18 0 25 23
67 37 82 27 18 -11 16 -80 -2 -91 -25 -16 -54 -9 -68 16 -18 33 -24 32 -35 -7
-9 -30 -14 -33 -54 -36 -30 -2 -49 2 -62 14 -11 9 -20 15 -22 13 -2 -2 -11
-16 -20 -31 -17 -27 -20 -28 -106 -28 -59 0 -92 4 -99 13 -7 9 -33 10 -94 6
-103 -6 -143 3 -161 39 -7 15 -19 26 -26 24 -6 -1 -41 -3 -77 -3 -68 -1 -104
16 -104 49 0 12 -6 10 -24 -7 -15 -14 -42 -25 -69 -28 -38 -5 -47 -2 -61 18
-36 52 -21 64 109 81 160 21 210 23 223 11 9 -9 19 -10 30 -4z m1156 -22 c3 3
5 -6 4 -21 l-2 -28 -18 22 c-10 12 -18 30 -18 39 1 14 2 14 14 -1 7 -10 16
-15 20 -11z m-1589 -47 c-18 -20 -35 -18 -35 3 0 7 12 14 27 15 25 2 26 2 8
-18z m85 -74 c0 -2 3 -11 6 -20 4 -11 0 -16 -12 -16 -27 0 -48 16 -40 29 7 10
46 16 46 7z m184 -11 c9 -9 22 -25 29 -36 12 -16 19 -18 41 -9 41 15 136 -10
136 -36 0 -10 7 -13 24 -8 13 3 43 0 67 -7 24 -7 83 -11 132 -10 81 2 87 1 87
-18 0 -15 -11 -22 -50 -30 -75 -16 -227 -14 -280 5 -24 8 -80 20 -125 26 -152
19 -149 17 -183 103 -2 6 1 3 7 -5 8 -12 13 -12 33 6 21 20 42 31 60 33 4 1
14 -6 22 -14z m1056 -45 c0 -12 -29 -20 -35 -10 -9 15 4 30 20 23 8 -3 15 -9
15 -13z m-420 -55 c0 -7 -35 -20 -75 -29 l-30 -6 24 20 c20 18 81 29 81 15z
m-303 -1451 c-3 -3 -12 -4 -19 -1 -8 3 -5 6 6 6 11 1 17 -2 13 -5z m-3842
-724 c3 -5 -1 -10 -9 -10 -9 0 -16 5 -16 10 0 6 4 10 9 10 6 0 13 -4 16 -10z
m-25 -40 c0 -5 -7 -10 -15 -10 -8 0 -15 5 -15 10 0 6 7 10 15 10 8 0 15 -4 15
-10z m50 -10 c0 -5 -4 -10 -10 -10 -5 0 -10 5 -10 10 0 6 5 10 10 10 6 0 10
-4 10 -10z m-50 -40 c0 -5 -7 -10 -15 -10 -8 0 -15 5 -15 10 0 6 7 10 15 10 8
0 15 -4 15 -10z m127 -66 c-9 -9 -27 6 -27 22 0 13 2 13 16 -1 9 -9 14 -18 11
-21z m-247 22 c0 -11 -19 -15 -25 -6 -3 5 1 10 9 10 9 0 16 -2 16 -4z m130
-26 c0 -5 -4 -10 -9 -10 -6 0 -13 5 -16 10 -3 6 1 10 9 10 9 0 16 -4 16 -10z
m-44 -57 c-11 -11 -19 6 -11 24 8 17 8 17 12 0 3 -10 2 -21 -1 -24z m184 11
c0 -8 -4 -14 -10 -14 -5 0 -10 9 -10 21 0 11 5 17 10 14 6 -3 10 -13 10 -21z
m-420 -33 c0 -14 -6 -17 -27 -13 -25 5 -25 6 -8 18 25 19 35 17 35 -5z m189
-5 c-13 -13 -29 -22 -36 -19 -19 8 -16 19 10 31 39 19 51 14 26 -12z m281 4
c-8 -5 -18 -6 -24 -3 -5 4 -1 10 10 13 24 9 34 2 14 -10z m-210 -25 c0 -12
-19 -12 -23 0 -4 9 -1 12 9 8 7 -3 14 -7 14 -8z m228 -20 c-3 -3 -9 2 -12 12
-6 14 -5 15 5 6 7 -7 10 -15 7 -18z m-378 -15 c0 -5 -2 -10 -4 -10 -3 0 -8 5
-11 10 -3 6 -1 10 4 10 6 0 11 -4 11 -10z m100 -21 c0 -5 -11 -9 -25 -9 -14 0
-25 6 -25 14 0 9 8 12 25 8 14 -2 25 -8 25 -13z m210 2 c0 -5 -7 -11 -15 -15
-15 -5 -20 5 -8 17 9 10 23 9 23 -2z m-70 -11 c0 -5 -4 -10 -10 -10 -5 0 -10
5 -10 10 0 6 5 10 10 10 6 0 10 -4 10 -10z m-210 -26 c0 -14 -12 -19 -23 -8
-9 9 4 35 14 28 5 -3 9 -12 9 -20z m358 -20 c23 -38 30 -71 8 -41 -7 9 -19 17
-26 17 -7 0 -10 7 -6 15 3 8 1 15 -4 15 -6 0 -10 7 -10 15 0 24 13 17 38 -21z
m132 2 c0 -11 -19 -15 -25 -6 -3 5 1 10 9 10 9 0 16 -2 16 -4z m4592 -28 c-7
-7 -12 -8 -12 -2 0 14 12 26 19 19 2 -3 -1 -11 -7 -17z m-5055 -29 c1 -19 -1
-26 -3 -16 -3 9 -14 17 -25 17 -17 0 -18 3 -7 20 18 28 33 19 35 -21z m194 18
c-1 -12 -15 -9 -19 4 -3 6 1 10 8 8 6 -3 11 -8 11 -12z m-571 -27 c0 -13 -20
-13 -40 0 -12 8 -9 10 13 10 15 0 27 -4 27 -10z m5415 1 c3 -5 1 -12 -5 -16
-5 -3 -10 1 -10 9 0 18 6 21 15 7z m-4964 -34 c-10 -9 -11 -8 -5 6 3 10 9 15
12 12 3 -3 0 -11 -7 -18z m-262 -32 c0 -5 -4 -3 -9 5 -5 8 -9 22 -9 30 0 16
17 -16 18 -35z m-249 -65 c0 -5 -2 -10 -4 -10 -3 0 -8 5 -11 10 -3 6 -1 10 4
10 6 0 11 -4 11 -10z m0 -40 c0 -5 -7 -10 -16 -10 -8 0 -12 5 -9 10 3 6 10 10
16 10 5 0 9 -4 9 -10z m-13 -76 c-3 -3 -12 -4 -19 -1 -8 3 -5 6 6 6 11 1 17
-2 13 -5z m4763 -14 c0 -5 -5 -10 -11 -10 -5 0 -7 5 -4 10 3 6 8 10 11 10 2 0
4 -4 4 -10z m-4130 -20 c0 -5 -2 -10 -4 -10 -3 0 -8 5 -11 10 -3 6 -1 10 4 10
6 0 11 -4 11 -10z m90 -14 c0 -3 -4 -8 -10 -11 -5 -3 -10 -1 -10 4 0 6 5 11
10 11 6 0 10 -2 10 -4z m-540 -166 c0 -5 -4 -10 -10 -10 -5 0 -10 5 -10 10 0
6 5 10 10 10 6 0 10 -4 10 -10z m1160 -14 c0 -3 -4 -8 -10 -11 -5 -3 -10 -1
-10 4 0 6 5 11 10 11 6 0 10 -2 10 -4z m-1686 -32 c4 -10 1 -14 -6 -12 -15 5
-23 28 -10 28 5 0 13 -7 16 -16z m1691 -4 c-3 -5 -12 -10 -18 -10 -7 0 -6 4 3
10 19 12 23 12 15 0z m-1858 -162 c-3 -8 -6 -5 -6 6 -1 11 2 17 5 13 3 -3 4
-12 1 -19z m-12 -28 c3 -6 -1 -7 -9 -4 -18 7 -21 14 -7 14 6 0 13 -4 16 -10z
m-200 -100 c-3 -5 -11 -10 -16 -10 -6 0 -7 5 -4 10 3 6 11 10 16 10 6 0 7 -4
4 -10z m-65 -80 c0 -5 -9 -10 -21 -10 -11 0 -17 5 -14 10 3 6 13 10 21 10 8 0
14 -4 14 -10z m2500 -10 c0 -5 -4 -10 -10 -10 -5 0 -10 5 -10 10 0 6 5 10 10
10 6 0 10 -4 10 -10z m-2095 -40 c-3 -5 -10 -10 -16 -10 -5 0 -9 5 -9 10 0 6
7 10 16 10 8 0 12 -4 9 -10z m-585 -9 c0 -6 -4 -13 -10 -16 -5 -3 -10 1 -10 9
0 9 5 16 10 16 6 0 10 -4 10 -9z m115 0 c3 -5 1 -12 -5 -16 -5 -3 -10 1 -10 9
0 18 6 21 15 7z m225 -61 c0 -5 -8 -10 -17 -10 -15 0 -16 2 -3 10 19 12 20 12
20 0z m-450 -30 c0 -5 -2 -10 -4 -10 -3 0 -8 5 -11 10 -3 6 -1 10 4 10 6 0 11
-4 11 -10z m590 -25 c0 -8 -4 -15 -10 -15 -5 0 -10 7 -10 15 0 8 5 15 10 15 6
0 10 -7 10 -15z m-541 -31 c5 -5 -10 -24 -20 -24 -5 0 -9 6 -9 14 0 8 -6 17
-12 20 -7 3 -2 3 12 0 14 -4 27 -8 29 -10z m44 -65 c-5 -5 -24 -12 -43 -16
-31 -6 -33 -5 -20 9 9 8 22 17 30 20 20 7 43 -3 33 -13z m100 14 c-7 -2 -21
-2 -30 0 -10 3 -4 5 12 5 17 0 24 -2 18 -5z m-261 -78 c-13 -28 -38 -36 -27
-7 4 9 10 25 12 35 4 13 9 15 16 8 7 -7 7 -18 -1 -36z m268 35 c0 -5 -4 -10
-10 -10 -5 0 -10 5 -10 10 0 6 5 10 10 10 6 0 10 -4 10 -10z m-342 -11 c-2 -6
-8 -10 -13 -10 -5 0 -11 4 -13 10 -2 6 4 11 13 11 9 0 15 -5 13 -11z m188 -4
c-22 -17 -46 -20 -46 -6 0 11 18 19 45 20 20 0 20 0 1 -14z m-276 -75 c0 -5
-7 -7 -15 -4 -8 4 -12 10 -9 15 6 11 24 2 24 -11z m175 0 c3 -5 -3 -10 -15
-10 -12 0 -18 5 -15 10 3 6 10 10 15 10 5 0 12 -4 15 -10z m55 0 c0 -5 -8 -10
-17 -10 -15 0 -16 2 -3 10 19 12 20 12 20 0z m-180 -10 c0 -5 -5 -10 -11 -10
-5 0 -7 5 -4 10 3 6 8 10 11 10 2 0 4 -4 4 -10z m60 -23 c-27 -15 -36 -14 -25
2 3 6 16 11 28 11 21 0 21 -1 -3 -13z m-144 -29 c-3 -13 -5 -25 -5 -27 -1 -2
-8 2 -16 9 -12 10 -13 16 -4 26 17 21 29 17 25 -8z m364 12 c0 -5 -5 -10 -11
-10 -5 0 -7 5 -4 10 3 6 8 10 11 10 2 0 4 -4 4 -10z m147 -6 c-3 -3 -12 -4
-19 -1 -8 3 -5 6 6 6 11 1 17 -2 13 -5z m-442 -34 c-3 -5 -12 -7 -20 -3 -21 7
-19 13 6 13 11 0 18 -4 14 -10z m15 -50 c0 -5 -4 -10 -10 -10 -5 0 -10 5 -10
10 0 6 5 10 10 10 6 0 10 -4 10 -10z m124 -74 c-10 -8 -23 -12 -27 -9 -5 3 2
11 15 17 29 16 38 10 12 -8z m163 -132 c-3 -3 -12 -4 -19 -1 -8 3 -5 6 6 6 11
1 17 -2 13 -5z m-322 -14 c-3 -5 -10 -10 -16 -10 -5 0 -9 5 -9 10 0 6 7 10 16
10 8 0 12 -4 9 -10z m505 6 c0 -3 -4 -8 -10 -11 -5 -3 -10 -1 -10 4 0 6 5 11
10 11 6 0 10 -2 10 -4z m-53 -28 c-3 -8 -6 -5 -6 6 -1 11 2 17 5 13 3 -3 4
-12 1 -19z m-217 -10 c0 -13 -23 -5 -28 10 -2 7 2 10 12 6 9 -3 16 -11 16 -16z
m457 0 c-3 -8 -6 -5 -6 6 -1 11 2 17 5 13 3 -3 4 -12 1 -19z m-262 -8 c-3 -5
-10 -10 -16 -10 -5 0 -9 5 -9 10 0 6 7 10 16 10 8 0 12 -4 9 -10z m-69 -45
c-8 -8 -18 -15 -22 -15 -3 0 -1 7 6 15 7 8 17 15 22 15 5 0 3 -7 -6 -15z m69
-14 c3 -5 1 -12 -5 -16 -5 -3 -10 1 -10 9 0 18 6 21 15 7z m-85 -61 c0 -5 -4
-10 -10 -10 -5 0 -10 5 -10 10 0 6 5 10 10 10 6 0 10 -4 10 -10z m-100 -4 c0
-2 -9 -6 -20 -9 -11 -3 -18 -1 -14 4 5 9 34 13 34 5z m10 -40 c0 -2 -8 -10
-17 -17 -16 -13 -17 -12 -4 4 13 16 21 21 21 13z m385 -36 c3 -5 1 -10 -4 -10
-6 0 -11 5 -11 10 0 6 2 10 4 10 3 0 8 -4 11 -10z m-185 -279 c0 -5 -9 -11
-20 -14 -22 -6 -26 3 -8 21 11 11 28 7 28 -7z"/>
<path d="M7820 9701 c0 -5 5 -13 10 -16 6 -3 10 -2 10 4 0 5 -4 13 -10 16 -5
3 -10 2 -10 -4z"/>
<path d="M7972 9688 c6 -18 28 -21 28 -4 0 9 -7 16 -16 16 -9 0 -14 -5 -12
-12z"/>
<path d="M8130 9450 c0 -5 7 -10 15 -10 8 0 15 5 15 10 0 6 -7 10 -15 10 -8 0
-15 -4 -15 -10z"/>
<path d="M3128 9583 c6 -2 18 -2 25 0 6 3 1 5 -13 5 -14 0 -19 -2 -12 -5z"/>
<path d="M3158 9553 c6 -2 18 -2 25 0 6 3 1 5 -13 5 -14 0 -19 -2 -12 -5z"/>
<path d="M10418 8033 c12 -2 32 -2 45 0 12 2 2 4 -23 4 -25 0 -35 -2 -22 -4z"/>
<path d="M5466 9462 c-3 -5 1 -18 9 -28 14 -18 15 -18 12 3 -4 27 -13 38 -21
25z"/>
<path d="M5592 9448 c6 -18 28 -21 28 -4 0 9 -7 16 -16 16 -9 0 -14 -5 -12
-12z"/>
<path d="M10290 9436 c-5 -14 -7 -33 -4 -41 5 -11 -1 -15 -20 -15 -24 0 -26
-4 -26 -40 l0 -40 -40 0 c-29 0 -40 -4 -40 -15 0 -11 11 -15 40 -15 29 0 40 4
40 15 0 9 9 15 23 15 23 0 62 20 40 20 -19 0 -16 18 5 23 16 4 16 5 0 6 -31 2
-20 20 16 26 31 6 33 9 32 43 -2 32 -6 37 -29 40 -21 3 -29 -2 -37 -22z"/>
<path d="M5750 9389 c0 -14 20 -20 36 -11 14 8 12 10 -10 14 -14 3 -26 2 -26
-3z"/>
<path d="M10480 9360 c0 -11 4 -20 8 -20 4 0 8 9 9 20 1 11 -2 20 -8 20 -5 0
-9 -9 -9 -20z"/>
<path d="M10400 9340 c0 -5 5 -10 11 -10 5 0 7 5 4 10 -3 6 -8 10 -11 10 -2 0
-4 -4 -4 -10z"/>
<path d="M9327 8923 c-13 -12 -7 -23 13 -23 11 0 20 7 20 15 0 15 -21 21 -33
8z"/>
<path d="M6508 8898 c8 -8 17 -8 34 0 22 10 21 11 -11 11 -27 1 -32 -2 -23
-11z"/>
<path d="M9120 8840 c0 -5 19 -10 42 -10 49 0 47 5 -4 14 -24 4 -38 3 -38 -4z"/>
<path d="M9310 8840 c0 -5 5 -10 10 -10 6 0 10 5 10 10 0 6 -4 10 -10 10 -5 0
-10 -4 -10 -10z"/>
<path d="M8780 8813 c-8 -3 -23 -15 -35 -25 -20 -19 -20 -19 -23 1 -2 12 -11
21 -21 21 -21 0 -29 -69 -9 -82 8 -5 9 -11 3 -15 -5 -5 -11 -18 -12 -30 -2
-19 2 -23 27 -23 35 0 47 -15 23 -29 -10 -6 -12 -11 -5 -11 6 0 12 -7 12 -15
0 -8 15 -21 33 -29 l32 -14 -42 -1 c-35 -1 -43 -4 -43 -20 0 -21 -46 -74 -73
-84 -15 -6 -17 -13 -12 -37 5 -23 3 -30 -8 -30 -29 0 -47 -46 -47 -122 1 -56
5 -78 19 -95 20 -24 41 -30 41 -13 0 6 18 10 40 10 22 0 40 -4 40 -10 0 -11
52 -13 88 -4 25 7 30 24 7 24 -22 0 -18 18 5 25 11 3 20 10 20 15 0 22 34 40
76 40 24 0 44 5 44 10 0 6 18 10 40 10 36 0 40 -2 40 -25 0 -24 3 -25 54 -25
l54 0 4 43 c5 50 1 67 -18 67 -9 0 -13 11 -12 35 1 25 6 35 18 35 19 0 61 29
43 30 -20 0 -15 20 5 20 15 0 15 2 2 11 -11 8 -12 12 -2 16 6 2 12 20 12 39 0
33 -1 34 -40 34 -29 0 -40 -4 -40 -15 0 -11 -11 -15 -40 -15 -22 0 -40 -4 -40
-10 0 -5 -18 -10 -40 -10 -29 0 -40 -4 -40 -15 0 -11 -11 -15 -42 -14 l-43 1
32 11 c34 13 53 27 36 27 -6 0 -26 15 -45 33 -33 30 -35 38 -37 95 -1 36 3 62
9 62 5 0 10 -11 10 -24 0 -21 5 -24 53 -29 71 -7 86 16 43 66 -17 19 -33 27
-56 27 -25 0 -40 8 -63 35 -28 34 -46 40 -77 28z m100 -83 c0 -5 -4 -10 -10
-10 -5 0 -10 5 -10 10 0 6 5 10 10 10 6 0 10 -4 10 -10z"/>
<path d="M8528 8783 c6 -2 18 -2 25 0 6 3 1 5 -13 5 -14 0 -19 -2 -12 -5z"/>
<path d="M1200 8675 c0 -8 -7 -15 -15 -15 -8 0 -15 -3 -16 -7 -6 -40 -5 -73 1
-73 5 0 15 -2 22 -5 11 -5 14 4 12 39 -2 38 1 45 19 50 18 5 20 8 7 16 -21 14
-30 12 -30 -5z"/>
<path d="M9040 8635 c0 -35 4 -54 10 -50 12 7 10 94 -2 101 -4 3 -8 -20 -8
-51z"/>
<path d="M8558 8648 c-4 -21 -1 -23 39 -19 34 2 43 7 43 22 0 15 -7 19 -39 19
-32 0 -39 -4 -43 -22z"/>
<path d="M1025 8600 c-3 -5 -1 -10 4 -10 6 0 11 5 11 10 0 6 -2 10 -4 10 -3 0
-8 -4 -11 -10z"/>
<path d="M1820 8600 c0 -5 5 -10 10 -10 6 0 10 5 10 10 0 6 -4 10 -10 10 -5 0
-10 -4 -10 -10z"/>
<path d="M8540 8600 c-13 -8 -12 -10 3 -10 9 0 17 5 17 10 0 12 -1 12 -20 0z"/>
<path d="M8400 8590 c0 -5 5 -10 10 -10 6 0 10 5 10 10 0 6 -4 10 -10 10 -5 0
-10 -4 -10 -10z"/>
<path d="M8898 8593 c12 -2 32 -2 45 0 12 2 2 4 -23 4 -25 0 -35 -2 -22 -4z"/>
<path d="M2847 8573 c-8 -7 11 -33 24 -33 5 0 9 9 9 20 0 19 -20 27 -33 13z"/>
<path d="M1332 8549 c-15 -24 -7 -59 14 -59 10 0 14 12 14 40 0 44 -9 50 -28
19z"/>
<path d="M1600 8534 c0 -14 -8 -16 -55 -11 -30 3 -57 2 -60 -3 -7 -12 21 -20
71 -20 37 0 44 -3 44 -20 0 -17 -7 -20 -40 -20 -22 0 -40 -4 -40 -10 0 -5 -18
-10 -40 -10 -22 0 -40 -4 -40 -10 0 -5 18 -10 40 -10 33 0 40 -3 40 -20 0 -17
-7 -20 -40 -20 -22 0 -40 -4 -40 -10 0 -5 18 -10 40 -10 22 0 40 -4 40 -10 0
-5 -20 -10 -45 -10 -40 0 -45 3 -46 23 -3 47 -4 52 -21 55 -18 3 -23 -15 -19
-60 1 -10 -4 -18 -13 -18 -10 0 -16 -9 -16 -25 0 -22 -4 -25 -40 -25 -22 0
-40 -4 -40 -10 0 -5 -16 -10 -36 -10 -41 0 -57 -13 -78 -64 -8 -20 -22 -39
-31 -42 -12 -5 -15 -23 -15 -86 0 -76 1 -80 34 -114 38 -39 53 -38 99 7 19 19
27 38 27 62 0 22 6 37 15 41 8 3 15 15 15 26 0 12 10 25 25 32 18 8 25 19 25
40 l0 28 80 0 80 0 0 55 c0 40 4 55 14 55 8 0 16 7 20 15 3 8 15 15 26 15 17
0 20 6 20 40 l0 40 -40 0 c-22 0 -40 5 -40 10 0 13 77 13 82 1 2 -5 21 -10 43
-11 72 -3 71 -4 70 43 -2 77 -10 87 -66 87 -39 0 -49 -3 -49 -16z"/>
<path d="M2160 8520 c0 -5 -18 -10 -40 -10 -33 0 -40 -3 -40 -20 0 -17 7 -20
40 -20 32 0 40 4 40 18 0 10 5 23 12 30 9 9 9 12 0 12 -7 0 -12 -4 -12 -10z"/>
<path d="M8480 8515 c0 -8 6 -15 14 -15 22 0 28 17 10 24 -22 9 -24 8 -24 -9z"/>
<path d="M2898 8513 c12 -2 32 -2 45 0 12 2 2 4 -23 4 -25 0 -35 -2 -22 -4z"/>
<path d="M480 8485 c0 -10 7 -15 18 -13 21 4 19 22 -2 26 -10 2 -16 -3 -16
-13z"/>
<path d="M560 8490 c0 -5 7 -10 15 -10 8 0 15 5 15 10 0 6 -7 10 -15 10 -8 0
-15 -4 -15 -10z"/>
<path d="M8480 8455 c0 -22 -4 -25 -40 -25 -33 0 -40 -3 -40 -20 0 -17 7 -20
39 -20 23 0 41 5 44 14 3 7 20 16 39 20 32 7 32 8 11 18 -13 6 -23 14 -23 18
0 5 -7 10 -15 14 -11 4 -15 -1 -15 -19z"/>
<path d="M1425 8460 c3 -5 8 -10 11 -10 2 0 4 5 4 10 0 6 -5 10 -11 10 -5 0
-7 -4 -4 -10z"/>
<path d="M8560 8434 c0 -8 5 -12 10 -9 6 4 8 11 5 16 -9 14 -15 11 -15 -7z"/>
<path d="M1308 8433 c6 -2 18 -2 25 0 6 3 1 5 -13 5 -14 0 -19 -2 -12 -5z"/>
<path d="M1818 8385 c-5 -40 1 -43 62 -34 l45 6 -42 1 c-41 2 -43 4 -43 32 0
41 -17 38 -22 -5z"/>
<path d="M285 8330 c-3 -5 -1 -10 5 -10 6 0 8 -5 4 -12 -5 -8 0 -9 17 -5 13 4
28 7 33 7 5 0 3 7 -4 15 -14 17 -46 20 -55 5z"/>
<path d="M6825 8320 c3 -5 13 -10 21 -10 8 0 12 5 9 10 -3 6 -13 10 -21 10 -8
0 -12 -4 -9 -10z"/>
<path d="M240 8270 c0 -23 10 -26 28 -8 18 18 15 28 -8 28 -13 0 -20 -7 -20
-20z"/>
<path d="M8418 8273 c12 -2 32 -2 45 0 12 2 2 4 -23 4 -25 0 -35 -2 -22 -4z"/>
<path d="M8336 8257 c-16 -12 -16 -14 3 -31 21 -19 21 -19 42 0 19 17 19 19 3
31 -10 7 -21 13 -24 13 -3 0 -14 -6 -24 -13z"/>
<path d="M987 8254 c-4 -4 -7 -22 -7 -41 0 -18 -4 -33 -10 -33 -5 0 -10 -9
-10 -20 0 -11 -10 -30 -21 -41 -17 -17 -18 -23 -8 -29 10 -7 10 -11 0 -24 -7
-8 -10 -20 -7 -25 4 -6 -2 -15 -13 -20 -16 -9 -18 -18 -14 -53 7 -62 35 -88
95 -88 l48 0 0 150 c0 87 -4 150 -9 150 -6 0 -11 17 -13 37 -3 35 -17 51 -31
37z"/>
<path d="M1398 8113 c23 -2 61 -2 85 0 23 2 4 4 -43 4 -47 0 -66 -2 -42 -4z"/>
<path d="M178 8103 c12 -2 32 -2 45 0 12 2 2 4 -23 4 -25 0 -35 -2 -22 -4z"/>
<path d="M8849 8093 c-9 -61 -6 -74 15 -71 11 2 20 6 19 11 -2 4 -3 21 -3 37
0 20 -5 30 -15 30 -8 0 -15 -3 -16 -7z"/>
<path d="M9650 8090 l-25 -8 28 -1 c15 -1 27 4 27 9 0 6 -1 10 -2 9 -2 -1 -14
-5 -28 -9z"/>
<path d="M240 8034 c0 -8 5 -12 10 -9 6 4 8 11 5 16 -9 14 -15 11 -15 -7z"/>
<path d="M305 8041 c-3 -5 -1 -12 5 -16 5 -3 10 1 10 9 0 18 -6 21 -15 7z"/>
<path d="M8560 8018 c0 -18 9 -44 20 -58 l20 -25 20 25 c11 14 20 35 20 48 0
19 6 22 43 23 l42 2 -50 7 c-27 5 -65 9 -82 9 -31 1 -33 -1 -33 -31z"/>
<path d="M9590 8032 c0 -4 17 -6 38 -4 58 5 62 10 10 11 -27 1 -48 -3 -48 -7z"/>
<path d="M8488 7983 c6 -2 18 -2 25 0 6 3 1 5 -13 5 -14 0 -19 -2 -12 -5z"/>
<path d="M8523 7953 c9 -2 23 -2 30 0 6 3 -1 5 -18 5 -16 0 -22 -2 -12 -5z"/>
<path d="M8444 7896 c-1 -27 4 -35 20 -38 19 -4 21 0 21 31 -1 28 -6 37 -21
39 -15 2 -19 -4 -20 -32z"/>
<path d="M400 7890 c0 -5 18 -10 40 -10 22 0 40 5 40 10 0 6 -18 10 -40 10
-22 0 -40 -4 -40 -10z"/>
<path d="M9520 7869 c0 -5 5 -7 10 -4 6 3 10 8 10 11 0 2 -4 4 -10 4 -5 0 -10
-5 -10 -11z"/>
<path d="M399 7838 c-1 -13 -1 -30 0 -39 1 -9 -7 -19 -17 -21 -17 -5 -19 -16
-21 -89 -1 -90 8 -140 27 -147 8 -2 12 9 12 32 0 20 5 36 11 36 6 0 8 -7 5
-16 -4 -9 1 -27 9 -40 13 -21 23 -24 75 -24 32 0 62 -4 65 -10 3 -5 13 -10 21
-10 12 0 12 4 4 20 -11 20 -9 78 4 99 13 21 -4 69 -27 75 -23 6 -40 -4 -19
-11 6 -3 12 -11 12 -19 0 -10 -12 -14 -40 -14 -33 0 -40 3 -40 20 0 11 -4 20
-10 20 -5 0 -9 16 -8 35 1 40 18 49 18 10 0 -27 14 -33 27 -12 15 25 12 45 -8
50 -11 3 -19 11 -18 19 6 49 0 58 -41 58 -34 0 -40 -3 -41 -22z m161 -208 c0
-5 -18 -10 -40 -10 -22 0 -40 5 -40 10 0 6 18 10 40 10 22 0 40 -4 40 -10z"/>
<path d="M660 7820 c0 -28 5 -43 16 -47 10 -4 14 -13 10 -29 -8 -28 2 -54 20
-54 8 0 14 -10 14 -25 0 -23 -4 -25 -42 -25 -23 0 -39 -3 -35 -6 11 -12 157 8
157 21 0 7 9 15 21 18 27 7 17 24 -20 32 -16 3 -32 13 -35 21 -3 8 -13 14 -22
14 -10 0 -14 3 -11 7 4 3 -2 12 -13 20 -14 10 -20 26 -20 54 0 32 -3 39 -20
39 -17 0 -20 -7 -20 -40z"/>
<path d="M960 7807 c0 -34 15 -57 37 -57 18 0 16 55 -3 74 -24 24 -34 19 -34
-17z"/>
<path d="M4955 7810 c-3 -5 1 -10 9 -10 9 0 16 5 16 10 0 6 -4 10 -9 10 -6 0
-13 -4 -16 -10z"/>
<path d="M9655 7800 c-3 -5 1 -10 9 -10 9 0 16 5 16 10 0 6 -4 10 -9 10 -6 0
-13 -4 -16 -10z"/>
<path d="M240 7764 c0 -8 5 -12 10 -9 6 4 8 11 5 16 -9 14 -15 11 -15 -7z"/>
<path d="M5195 7770 c-3 -6 -17 -7 -30 -4 -22 5 -44 -9 -28 -19 14 -9 62 5 67
19 6 16 0 19 -9 4z"/>
<path d="M4648 7763 c6 -2 18 -2 25 0 6 3 1 5 -13 5 -14 0 -19 -2 -12 -5z"/>
<path d="M5063 7757 c-66 -12 -71 -31 -5 -21 43 6 72 19 61 27 -2 2 -28 -1
-56 -6z"/>
<path d="M8443 7755 c0 -8 5 -15 11 -15 6 0 3 -7 -7 -14 -16 -12 -16 -14 -1
-20 29 -11 34 -6 34 29 0 27 -4 35 -18 35 -10 0 -19 -7 -19 -15z"/>
<path d="M4575 7734 c-38 -14 -55 -29 -55 -48 0 -6 5 -5 12 2 18 18 33 15 18
-3 -10 -12 -10 -19 -2 -27 8 -8 12 -9 12 -1 0 14 82 32 132 30 20 -1 36 -6 35
-12 -3 -14 39 -12 98 5 l50 14 -60 6 c-49 4 -60 8 -59 23 2 18 -11 23 -20 8
-3 -5 -15 -7 -26 -4 -11 3 -20 0 -20 -6 0 -6 -17 -11 -39 -11 -23 0 -44 -6
-51 -15 -9 -11 -16 -13 -23 -6 -15 15 -2 24 46 30 23 3 41 11 40 16 -4 15 -44
15 -88 -1z"/>
<path d="M5230 7720 c-30 -11 -67 -19 -82 -20 -15 0 -47 -11 -72 -25 -25 -14
-55 -27 -68 -29 -13 -3 -27 -5 -33 -6 -5 -1 4 -6 20 -11 29 -8 29 -8 -5 -5
-19 2 -46 7 -60 12 -22 7 -24 6 -12 -9 8 -9 20 -13 29 -10 11 4 14 2 11 -8 -3
-8 -18 -14 -38 -14 -18 0 -35 -5 -37 -11 -4 -12 85 -12 104 -1 10 7 188 -12
280 -29 45 -9 69 1 53 21 -10 12 -10 15 3 15 8 0 18 -7 21 -16 3 -8 10 -13 15
-9 5 3 12 1 16 -5 8 -12 55 -13 55 -1 0 5 11 12 25 15 14 4 25 13 25 21 0 9 9
15 21 15 38 0 -3 26 -43 28 -39 1 -84 34 -73 52 4 6 -2 10 -12 11 -16 0 -16 1
2 8 15 6 11 9 -22 14 -23 4 -47 9 -55 12 -7 2 -38 -4 -68 -15z m80 -10 c0 -5
-5 -10 -11 -10 -5 0 -7 5 -4 10 3 6 8 10 11 10 2 0 4 -4 4 -10z m-193 -56 c-3
-3 -12 -4 -19 -1 -8 3 -5 6 6 6 11 1 17 -2 13 -5z"/>
<path d="M8685 7720 c-8 -14 3 -30 21 -30 8 0 14 9 14 20 0 21 -24 28 -35 10z"/>
<path d="M6775 7700 c-3 -5 1 -10 9 -10 9 0 16 5 16 10 0 6 -4 10 -9 10 -6 0
-13 -4 -16 -10z"/>
<path d="M4918 7693 c7 -3 16 -2 19 1 4 3 -2 6 -13 5 -11 0 -14 -3 -6 -6z"/>
<path d="M5018 7693 c12 -2 30 -2 40 0 9 3 -1 5 -23 4 -22 0 -30 -2 -17 -4z"/>
<path d="M9838 7645 l-3 -55 43 0 42 0 0 55 0 55 -39 0 -39 0 -4 -55z"/>
<path d="M4514 7655 c-9 -22 1 -29 15 -11 8 10 9 16 1 21 -5 3 -13 -1 -16 -10z"/>
<path d="M5468 7663 c7 -3 16 -2 19 1 4 3 -2 6 -13 5 -11 0 -14 -3 -6 -6z"/>
<path d="M4595 7640 c-27 -18 -28 -20 -8 -20 12 0 23 6 26 13 3 9 7 9 20 -1 9
-8 26 -12 39 -9 20 4 20 4 -4 6 -18 0 -28 7 -28 16 0 20 -9 19 -45 -5z"/>
<path d="M738 7613 c12 -2 32 -2 45 0 12 2 2 4 -23 4 -25 0 -35 -2 -22 -4z"/>
<path d="M8334 7592 c-15 -10 -19 -132 -4 -132 12 0 18 13 23 48 2 13 9 27 16
31 9 6 9 14 0 34 -13 29 -18 31 -35 19z"/>
<path d="M10880 7570 c0 -12 47 -12 75 0 15 6 8 9 -27 9 -27 1 -48 -3 -48 -9z"/>
<path d="M6480 7544 c0 -8 5 -12 10 -9 6 3 10 10 10 16 0 5 -4 9 -10 9 -5 0
-10 -7 -10 -16z"/>
<path d="M9647 7452 c-7 -10 -7 -203 -1 -224 11 -36 34 -20 34 23 0 32 4 42
19 46 14 4 18 13 17 41 -1 31 3 38 22 40 14 2 22 -2 22 -11 0 -10 13 -16 38
-20 46 -5 52 -2 45 23 -4 16 -14 20 -44 20 -22 0 -39 4 -39 9 0 5 -18 7 -40 4
-39 -6 -40 -5 -40 26 0 29 -21 44 -33 23z"/>
<path d="M6344 7405 c-3 -14 -11 -25 -18 -25 -15 0 16 -20 32 -20 7 0 12 14
12 35 0 40 -17 47 -26 10z"/>
<path d="M9848 7423 c6 -2 18 -2 25 0 6 3 1 5 -13 5 -14 0 -19 -2 -12 -5z"/>
<path d="M9893 7393 c15 -2 39 -2 55 0 15 2 2 4 -28 4 -30 0 -43 -2 -27 -4z"/>
<path d="M194 7367 c-9 -25 0 -62 16 -62 11 0 15 10 15 34 -1 36 -21 54 -31
28z"/>
<path d="M9150 7360 c0 -5 5 -10 10 -10 6 0 10 5 10 10 0 6 -4 10 -10 10 -5 0
-10 -4 -10 -10z"/>
<path d="M10280 7320 l-45 -7 43 -1 c23 -1 42 -7 42 -12 0 -6 -13 -24 -30 -40
-16 -16 -30 -31 -30 -34 0 -2 14 -7 30 -11 17 -4 30 -11 30 -16 0 -5 7 -9 15
-9 8 0 15 5 15 10 0 6 -7 10 -15 10 -8 0 -15 7 -15 16 0 14 9 16 50 12 27 -3
47 -2 45 3 -3 4 12 18 32 31 l38 23 -42 3 c-29 2 -43 8 -43 18 0 15 -38 17
-120 4z"/>
<path d="M10738 7313 c12 -2 32 -2 45 0 12 2 2 4 -23 4 -25 0 -35 -2 -22 -4z"/>
<path d="M6253 7248 c-13 -18 -15 -71 -3 -63 6 4 8 11 5 16 -4 5 1 9 9 9 10 0
16 9 16 25 0 27 -12 33 -27 13z"/>
<path d="M9337 7243 c-13 -12 -7 -33 8 -33 8 0 15 9 15 20 0 20 -11 26 -23 13z"/>
<path d="M9440 7225 c0 -22 -4 -25 -40 -25 -33 0 -40 -3 -40 -19 0 -16 -8 -21
-42 -24 l-43 -4 43 -1 42 -2 0 -45 0 -45 40 0 c33 0 40 -3 40 -20 0 -13 7 -20
19 -20 18 0 20 7 19 98 -1 94 -9 132 -28 132 -6 0 -10 -11 -10 -25z"/>
<path d="M8100 7230 c0 -5 5 -10 10 -10 6 0 10 5 10 10 0 6 -4 10 -10 10 -5 0
-10 -4 -10 -10z"/>
<path d="M4920 7211 c-36 -10 -81 -25 -100 -33 -19 -8 -54 -23 -77 -32 -91
-35 -129 -51 -158 -68 -25 -15 -27 -18 -10 -19 l20 0 -20 -10 c-25 -11 39 -2
70 10 11 4 35 13 52 19 32 10 33 9 27 -14 -6 -22 -3 -24 30 -24 21 0 39 6 42
13 6 15 87 7 184 -18 71 -18 142 -26 134 -14 -8 14 9 11 52 -10 21 -11 42 -17
46 -15 4 3 16 0 27 -6 13 -7 22 -7 26 0 4 6 11 8 16 4 5 -3 16 0 24 6 9 7 22
9 32 5 20 -9 29 -11 93 -23 25 -4 51 -12 58 -16 7 -4 24 -9 37 -12 32 -6 33
15 4 65 -27 45 -137 150 -166 157 -11 3 -23 14 -26 25 -5 20 -27 27 -27 9 0
-5 -4 -10 -10 -10 -5 0 -10 8 -10 18 0 13 -2 14 -9 4 -6 -11 -26 -11 -104 -3
-127 14 -179 13 -257 -8z m230 -41 c0 -19 -11 -26 -23 -14 -8 8 3 34 14 34 5
0 9 -9 9 -20z m-72 -7 c-5 -25 -28 -28 -28 -4 0 12 6 21 16 21 9 0 14 -7 12
-17z m-118 -84 c0 -16 -36 -9 -58 11 -28 26 -28 26 5 44 27 13 28 13 40 -16 7
-17 13 -34 13 -39z m396 56 c4 -8 14 -15 23 -15 21 0 81 -53 81 -72 0 -24 -22
-39 -34 -23 -14 18 -41 21 -96 10 -40 -8 -70 -8 -78 -1 -1 2 9 28 23 59 21 48
29 57 50 57 14 0 28 -7 31 -15z"/>
<path d="M3016 7191 c-16 -11 -35 -36 -42 -58 -21 -60 -17 -69 16 -35 16 17
42 34 57 38 38 8 83 28 83 35 0 12 -25 27 -55 33 -21 4 -39 0 -59 -13z"/>
<path d="M10248 7193 c6 -2 18 -2 25 0 6 3 1 5 -13 5 -14 0 -19 -2 -12 -5z"/>
<path d="M9018 7163 c21 -8 13 -21 -18 -28 -21 -5 -30 -13 -30 -26 0 -17 8
-19 68 -19 37 0 74 5 82 10 10 6 11 10 3 10 -8 0 -13 13 -13 30 0 30 -1 30
-52 29 -29 0 -47 -3 -40 -6z"/>
<path d="M9918 7153 c7 -3 16 -2 19 1 4 3 -2 6 -13 5 -11 0 -14 -3 -6 -6z"/>
<path d="M10818 7153 c12 -2 32 -2 45 0 12 2 2 4 -23 4 -25 0 -35 -2 -22 -4z"/>
<path d="M11155 7090 l-40 -7 43 -2 c23 0 42 4 42 9 0 6 -1 9 -2 9 -2 -1 -21
-5 -43 -9z"/>
<path d="M10080 7076 c0 -7 -10 -16 -22 -19 -16 -5 -19 -9 -11 -19 16 -19 -2
-58 -27 -58 -11 0 -20 -7 -20 -15 0 -8 8 -15 19 -15 26 0 85 21 93 34 8 12 3
80 -7 96 -9 15 -25 12 -25 -4z"/>
<path d="M8978 7073 c12 -2 32 -2 45 0 12 2 2 4 -23 4 -25 0 -35 -2 -22 -4z"/>
<path d="M11803 7073 c-35 -3 -43 -8 -43 -24 0 -16 7 -19 40 -19 33 0 40 3 40
19 0 16 8 21 43 24 l42 4 -40 0 c-22 0 -59 -2 -82 -4z"/>
<path d="M9089 7053 c-8 -57 -6 -73 12 -73 12 0 19 7 19 20 0 11 7 23 15 26
12 5 13 10 4 20 -12 15 -48 19 -50 7z"/>
<path d="M3370 7026 c0 -9 5 -16 10 -16 6 0 10 4 10 9 0 6 -4 13 -10 16 -5 3
-10 -1 -10 -9z"/>
<path d="M9485 6999 c-4 -6 2 -13 14 -16 17 -4 21 -13 21 -50 0 -58 24 -54 28
5 2 33 0 42 -12 42 -9 0 -16 7 -16 15 0 17 -26 20 -35 4z"/>
<path d="M9373 6993 c15 -2 37 -2 50 0 12 2 0 4 -28 4 -27 0 -38 -2 -22 -4z"/>
<path d="M10613 6947 c-4 -8 -17 -19 -28 -25 -20 -11 -20 -12 2 -18 18 -5 22
-12 18 -33 -6 -34 3 -61 21 -61 10 0 14 12 14 40 0 29 4 40 15 40 8 0 15 7 15
15 0 9 -7 18 -15 21 -8 4 -15 12 -15 20 0 18 -17 18 -27 1z"/>
<path d="M10250 6930 c20 -13 70 -13 70 0 0 6 -19 10 -42 10 -32 0 -39 -3 -28
-10z"/>
<path d="M10080 6856 c0 -47 4 -61 22 -76 15 -12 24 -33 27 -66 6 -47 7 -49
39 -52 18 -2 36 -10 39 -18 3 -8 11 -14 19 -14 10 0 14 15 14 60 0 54 3 63 30
88 19 18 30 39 32 62 2 19 7 38 13 42 19 14 -4 19 -119 25 l-116 6 0 -57z"/>
<path d="M9010 6886 c0 -2 7 -9 15 -16 12 -10 15 -10 15 4 0 9 -7 16 -15 16
-8 0 -15 -2 -15 -4z"/>
<path d="M5311 6862 c-13 -2 -31 -10 -39 -18 -8 -8 -27 -18 -43 -21 -16 -3
-29 -10 -29 -15 0 -6 10 -8 23 -5 12 3 48 9 80 12 31 4 57 11 57 15 0 5 12 10
28 12 15 2 27 8 27 13 0 10 -61 14 -104 7z"/>
<path d="M3427 6830 c-28 -22 -27 -44 2 -68 38 -30 47 -31 73 -7 l26 24 -33
36 c-19 19 -36 35 -38 35 -2 0 -16 -9 -30 -20z"/>
<path d="M9920 6835 c0 -8 -6 -15 -14 -15 -23 0 -34 -93 -19 -152 5 -22 33
-24 33 -3 0 11 11 15 40 15 22 0 40 4 40 10 0 5 18 13 40 16 30 5 40 11 40 25
0 15 -8 19 -40 19 l-40 0 0 50 0 50 -40 0 c-29 0 -40 -4 -40 -15z"/>
<path d="M10465 6810 c-3 -5 -1 -10 4 -10 6 0 11 5 11 10 0 6 -2 10 -4 10 -3
0 -8 -4 -11 -10z"/>
<path d="M10525 6810 c-3 -5 3 -10 14 -10 12 0 21 5 21 10 0 6 -6 10 -14 10
-8 0 -18 -4 -21 -10z"/>
<path d="M10495 6725 c11 -8 30 -24 43 -37 l22 -23 0 38 c0 37 0 37 -42 37
-40 -1 -42 -2 -23 -15z"/>
<path d="M10688 6703 c6 -2 18 -2 25 0 6 3 1 5 -13 5 -14 0 -19 -2 -12 -5z"/>
<path d="M10653 6673 c9 -2 23 -2 30 0 6 3 -1 5 -18 5 -16 0 -22 -2 -12 -5z"/>
<path d="M9988 6653 c-31 -8 -19 -24 15 -21 17 2 31 8 30 13 -2 12 -21 15 -45
8z"/>
<path d="M10877 6613 c6 -15 83 -18 83 -4 0 5 -20 11 -44 12 -32 3 -42 1 -39
-8z"/>
<path d="M9858 6593 c12 -2 32 -2 45 0 12 2 2 4 -23 4 -25 0 -35 -2 -22 -4z"/>
<path d="M9600 6534 c0 -59 24 -55 28 4 2 33 0 42 -12 42 -12 0 -16 -11 -16
-46z"/>
<path d="M10849 6573 c0 -5 -2 -17 -4 -28 -6 -29 4 -55 21 -55 8 0 14 -4 14
-10 0 -5 18 -10 40 -10 l40 0 0 55 0 55 -55 0 c-30 0 -55 -3 -56 -7z"/>
<path d="M9756 6485 c-6 -16 3 -19 28 -9 22 8 20 24 -3 24 -10 0 -21 -7 -25
-15z"/>
<path d="M10758 6433 c23 -2 61 -2 85 0 23 2 4 4 -43 4 -47 0 -66 -2 -42 -4z"/>
<path d="M3602 6278 c12 -39 42 -68 69 -68 23 0 23 3 2 48 -20 43 -30 52 -60
52 -20 0 -21 -2 -11 -32z"/>
<path d="M10343 6270 c-1 -13 4 -20 17 -20 13 0 18 7 17 20 -1 11 -8 20 -17
20 -9 0 -16 -9 -17 -20z"/>
<path d="M3960 6266 c0 -8 5 -18 10 -21 6 -3 10 3 10 14 0 12 -4 21 -10 21 -5
0 -10 -6 -10 -14z"/>
<path d="M10748 6253 c6 -2 18 -2 25 0 6 3 1 5 -13 5 -14 0 -19 -2 -12 -5z"/>
<path d="M10480 6116 c0 -7 -8 -16 -18 -18 -19 -5 -27 -38 -9 -38 5 0 4 -7 -3
-15 -10 -13 -9 -15 9 -15 14 0 21 6 21 20 0 17 7 20 40 20 27 0 40 4 40 14 0
7 10 16 23 20 35 10 1 26 -55 26 -34 0 -48 -4 -48 -14z"/>
<path d="M10292 6058 c4 -59 28 -63 28 -4 0 35 -4 46 -16 46 -12 0 -14 -9 -12
-42z"/>
<path d="M11517 6053 c6 -15 83 -18 83 -4 0 5 -20 11 -44 12 -32 3 -42 1 -39
-8z"/>
<path d="M6290 5920 c0 -5 7 -7 15 -4 8 4 15 8 15 10 0 2 -7 4 -15 4 -8 0 -15
-4 -15 -10z"/>
<path d="M11458 5873 c12 -2 32 -2 45 0 12 2 2 4 -23 4 -25 0 -35 -2 -22 -4z"/>
<path d="M5701 5788 c-43 -12 -82 -38 -75 -49 7 -12 56 -11 88 1 14 5 53 10
86 11 33 1 60 5 60 9 0 13 -67 40 -97 39 -15 0 -43 -5 -62 -11z"/>
<path d="M10871 5709 c-10 -18 -10 -23 0 -30 7 -4 -6 -5 -29 -2 -40 5 -42 4
-42 -19 0 -20 -6 -27 -30 -31 -16 -4 -30 -12 -30 -18 0 -7 -8 -18 -17 -25 -16
-12 -16 -12 5 -7 13 3 22 1 22 -6 0 -6 -6 -11 -12 -11 -17 -1 22 -30 40 -30 7
0 30 -18 51 -40 43 -47 58 -46 108 7 17 18 37 33 43 33 15 0 9 32 -7 38 -7 2
-13 -3 -13 -12 0 -9 -4 -16 -9 -16 -13 0 -22 16 -14 24 14 14 9 48 -9 57 -10
6 -16 14 -12 20 3 5 0 17 -8 26 -10 13 -10 17 -1 20 9 3 10 10 3 24 -14 24
-22 24 -39 -2z"/>
<path d="M11600 5609 c0 -17 5 -20 37 -17 27 2 39 8 41 21 3 14 -4 17 -37 17
-35 0 -41 -3 -41 -21z"/>
<path d="M11498 5583 c7 -3 16 -2 19 1 4 3 -2 6 -13 5 -11 0 -14 -3 -6 -6z"/>
<path d="M11440 5555 c0 -8 9 -15 19 -15 28 0 52 -11 45 -21 -3 -5 0 -9 5 -9
17 0 13 47 -5 54 -29 11 -64 7 -64 -9z"/>
<path d="M11708 5553 c12 -2 30 -2 40 0 9 3 -1 5 -23 4 -22 0 -30 -2 -17 -4z"/>
<path d="M10687 5533 c-2 -5 -4 -30 -3 -58 1 -41 4 -50 19 -50 9 0 17 3 17 8
0 4 0 30 0 57 0 37 -4 50 -14 50 -8 0 -17 -3 -19 -7z"/>
<path d="M10748 5473 c6 -2 18 -2 25 0 6 3 1 5 -13 5 -14 0 -19 -2 -12 -5z"/>
<path d="M10978 5473 c12 -2 32 -2 45 0 12 2 2 4 -23 4 -25 0 -35 -2 -22 -4z"/>
<path d="M11760 5450 c0 -17 7 -20 40 -20 33 0 40 3 40 20 0 17 -7 20 -40 20
-33 0 -40 -3 -40 -20z"/>
<path d="M6230 5436 c0 -9 5 -16 10 -16 6 0 10 4 10 9 0 6 -4 13 -10 16 -5 3
-10 -1 -10 -9z"/>
<path d="M11280 5391 c0 -51 -3 -61 -20 -66 -11 -3 -29 -3 -40 0 -23 7 -29
-19 -7 -28 15 -5 11 -73 -4 -83 -5 -3 -9 -21 -9 -41 0 -28 3 -34 16 -29 9 3
17 6 20 6 2 0 1 13 -2 29 -4 21 -2 30 11 35 12 4 16 16 13 43 -3 36 -1 38 28
41 l31 3 0 75 c1 66 -1 74 -18 74 -17 0 -19 -8 -19 -59z"/>
<path d="M10800 5410 c0 -5 18 -10 40 -10 22 0 40 5 40 10 0 6 -18 10 -40 10
-22 0 -40 -4 -40 -10z"/>
<path d="M10610 5400 c-11 -7 -9 -11 14 -20 28 -10 56 0 56 21 0 12 -51 11
-70 -1z"/>
<path d="M10220 5370 c0 -5 5 -10 10 -10 6 0 10 5 10 10 0 6 -4 10 -10 10 -5
0 -10 -4 -10 -10z"/>
<path d="M10800 5340 c0 -22 -4 -40 -10 -40 -5 0 -10 -15 -10 -34 0 -19 5 -38
10 -41 6 -4 10 5 10 20 0 26 2 27 43 24 l42 -4 -3 58 -4 57 -39 0 c-39 0 -39
0 -39 -40z"/>
<path d="M7221 5344 c0 -11 3 -14 6 -6 3 7 2 16 -1 19 -3 4 -6 -2 -5 -13z"/>
<path d="M10659 5288 c0 -7 -2 -26 -4 -41 -3 -25 -1 -28 23 -25 15 2 26 6 25
11 -2 4 -3 21 -3 37 0 23 -4 30 -20 30 -11 0 -20 -6 -21 -12z"/>
<path d="M10720 5254 c0 -21 4 -33 10 -29 6 3 10 19 10 36 0 16 -4 29 -10 29
-5 0 -10 -16 -10 -36z"/>
<path d="M10578 5261 c11 -7 10 -9 -3 -15 -26 -10 -7 -26 31 -26 30 0 34 3 34
25 0 22 -4 25 -37 25 -25 0 -33 -3 -25 -9z"/>
<path d="M11966 5228 c-3 -7 -5 -29 -5 -48 -1 -19 -4 -57 -7 -83 -6 -44 -4
-49 12 -45 17 3 19 15 22 96 2 60 -1 92 -8 92 -6 0 -12 -6 -14 -12z"/>
<path d="M10982 5178 c2 -30 8 -43 18 -43 10 0 16 13 18 43 3 37 1 42 -18 42
-19 0 -21 -5 -18 -42z"/>
<path d="M10622 5203 c-10 -4 -10 -10 2 -29 16 -23 15 -23 -20 -30 -28 -5 -35
-11 -33 -28 3 -44 -1 -56 -20 -56 -10 0 -22 -8 -25 -17 -9 -21 -6 -212 3 -217
4 -3 31 -1 61 4 54 7 54 8 13 9 l-43 1 0 40 0 40 40 0 c42 0 44 3 40 63 -1 21
3 27 18 27 31 0 52 11 52 26 0 8 -4 14 -10 14 -5 0 -10 9 -10 19 0 11 -5 23
-10 26 -8 5 -8 11 0 20 9 11 6 16 -11 25 -17 10 -19 14 -8 21 12 7 12 10 1 18
-8 4 -13 12 -12 17 2 11 -11 14 -28 7z"/>
<path d="M10307 5164 c-16 -16 -6 -34 19 -34 19 0 25 5 22 17 -3 19 -29 29
-41 17z"/>
<path d="M10960 5109 c0 -5 9 -9 20 -9 11 0 20 2 20 4 0 2 -9 6 -20 9 -11 3
-20 1 -20 -4z"/>
<path d="M10848 5103 c6 -2 18 -2 25 0 6 3 1 5 -13 5 -14 0 -19 -2 -12 -5z"/>
<path d="M10400 5075 c0 -11 11 -15 40 -15 29 0 40 4 40 15 0 11 -11 15 -40
15 -29 0 -40 -4 -40 -15z"/>
<path d="M10813 5073 c9 -2 23 -2 30 0 6 3 -1 5 -18 5 -16 0 -22 -2 -12 -5z"/>
<path d="M11003 5073 c9 -2 23 -2 30 0 6 3 -1 5 -18 5 -16 0 -22 -2 -12 -5z"/>
<path d="M11884 5017 c-1 -28 4 -36 30 -47 17 -7 25 -15 19 -17 -9 -3 -9 -9 0
-25 9 -16 9 -22 0 -25 -28 -10 -13 -33 22 -33 l35 0 0 55 0 55 -35 0 c-19 0
-35 5 -35 10 0 6 13 10 29 10 17 0 33 5 36 10 4 6 -9 10 -32 10 -25 0 -33 3
-25 9 11 7 10 10 -3 15 -31 12 -40 6 -41 -27z"/>
<path d="M10878 5028 c6 -6 18 -8 28 -6 14 3 12 5 -9 10 -19 3 -25 2 -19 -4z"/>
<path d="M3920 4996 c0 -9 5 -16 10 -16 6 0 10 4 10 9 0 6 -4 13 -10 16 -5 3
-10 -1 -10 -9z"/>
<path d="M10683 4993 c9 -2 23 -2 30 0 6 3 -1 5 -18 5 -16 0 -22 -2 -12 -5z"/>
<path d="M10923 4993 c9 -2 25 -2 35 0 9 3 1 5 -18 5 -19 0 -27 -2 -17 -5z"/>
<path d="M10640 4885 c0 -17 2 -18 24 -9 18 7 12 24 -10 24 -8 0 -14 -7 -14
-15z"/>
<path d="M11698 4883 c12 -2 32 -2 45 0 12 2 2 4 -23 4 -25 0 -35 -2 -22 -4z"/>
<path d="M6785 4810 c-3 -5 -1 -10 4 -10 6 0 11 5 11 10 0 6 -2 10 -4 10 -3 0
-8 -4 -11 -10z"/>
<path d="M11920 4730 c0 -16 7 -20 35 -20 28 0 35 4 35 20 0 16 -7 20 -35 20
-28 0 -35 -4 -35 -20z"/>
<path d="M11680 4670 c0 -5 18 -10 40 -10 l40 0 0 -40 0 -40 49 0 c70 0 81 -6
81 -45 0 -40 6 -45 41 -38 26 5 29 15 20 76 -1 4 -8 7 -17 7 -12 0 -15 7 -12
24 4 18 1 23 -10 18 -8 -3 -21 3 -28 13 -9 13 -31 20 -69 23 -30 2 -55 8 -55
13 0 5 -18 9 -40 9 -22 0 -40 -4 -40 -10z"/>
<path d="M3837 4408 c-4 -128 -12 -270 -19 -316 -10 -75 -8 -105 8 -90 3 3 10
100 15 214 16 346 18 400 10 413 -4 6 -11 -93 -14 -221z"/>
<path d="M6507 4523 c-12 -11 -8 -23 8 -23 8 0 15 7 15 15 0 16 -12 20 -23 8z"/>
<path d="M4367 4486 c-32 -12 -30 -30 4 -34 13 -2 31 -10 39 -17 8 -7 25 -16
37 -19 13 -4 26 -18 29 -32 5 -20 12 -24 46 -24 35 0 39 -2 33 -21 -6 -16 -3
-20 11 -17 33 6 25 26 -23 53 -26 14 -57 41 -68 58 -13 21 -30 33 -47 35 -15
2 -28 9 -30 16 -2 9 -10 9 -31 2z"/>
<path d="M5936 4421 c-4 -7 -5 -15 -2 -18 9 -9 19 4 14 18 -4 11 -6 11 -12 0z"/>
<path d="M4627 4283 c-11 -3 -16 -10 -13 -20 3 -8 6 -17 6 -19 0 -2 16 -4 35
-4 l36 0 -18 25 c-10 13 -20 24 -23 24 -3 -1 -13 -3 -23 -6z"/>
<path d="M6231 4236 c-14 -17 -1 -28 19 -16 11 7 12 12 4 20 -8 8 -14 7 -23
-4z"/>
<path d="M3787 3932 c-15 -26 -37 -59 -49 -74 -17 -21 -19 -30 -9 -41 6 -8 8
-22 5 -32 -5 -11 -1 -22 9 -30 12 -9 20 -41 29 -116 11 -106 27 -151 30 -88 5
118 6 151 8 214 1 39 6 99 10 135 5 36 6 68 2 72 -4 4 -20 -14 -35 -40z"/>
<path d="M3482 3598 c-14 -14 -16 -38 -4 -38 12 0 32 23 32 37 0 16 -12 17
-28 1z"/>
<path d="M2545 3089 c-22 -12 -56 -34 -76 -50 -20 -16 -42 -29 -48 -29 -6 0
-11 -7 -11 -15 0 -8 -5 -15 -11 -15 -16 0 -59 -48 -59 -65 0 -9 -6 -12 -15 -9
-11 5 -13 2 -9 -10 3 -8 -3 -27 -15 -42 -21 -27 -28 -64 -13 -64 5 0 17 17 26
38 10 21 27 50 39 64 12 14 33 38 47 54 14 16 61 54 105 83 44 30 87 60 95 67
23 22 -8 18 -55 -7z"/>
<path d="M2260 2910 c0 -5 5 -10 11 -10 5 0 7 5 4 10 -3 6 -8 10 -11 10 -2 0
-4 -4 -4 -10z"/>
<path d="M2240 2774 c0 -8 5 -12 10 -9 6 4 8 11 5 16 -9 14 -15 11 -15 -7z"/>
<path d="M2176 2732 c-3 -6 -1 -14 5 -17 15 -10 25 3 12 16 -7 7 -13 7 -17 1z"/>
<path d="M1910 2669 c0 -18 2 -19 15 -9 8 7 15 16 15 21 0 5 -7 9 -15 9 -9 0
-15 -9 -15 -21z"/>
<path d="M1860 2650 c0 -5 5 -10 10 -10 6 0 10 5 10 10 0 6 -4 10 -10 10 -5 0
-10 -4 -10 -10z"/>
<path d="M2311 2544 c0 -11 3 -14 6 -6 3 7 2 16 -1 19 -3 4 -6 -2 -5 -13z"/>
<path d="M6265 1950 c4 -6 11 -8 16 -5 14 9 11 15 -7 15 -8 0 -12 -5 -9 -10z"/>
<path d="M585 1529 c-4 -6 -5 -13 -2 -16 7 -7 27 6 27 18 0 12 -17 12 -25 -2z"/>
</g>
</svg>
